<svg width="12" height="12" viewBox="0 0 12 12" fill="none" xmlns="http://www.w3.org/2000/svg">
<path fill-rule="evenodd" clip-rule="evenodd" d="M7.95 10.606C7.34167 10.8687 6.69167 11 6 11C5.30833 11 4.65833 10.8687 4.05 10.606C3.44167 10.3437 2.9125 9.9875 2.4625 9.5375C2.0125 9.0875 1.65633 8.55833 1.394 7.95C1.13133 7.34167 1 6.69167 1 6C1 5.30833 1.13133 4.65833 1.394 4.05C1.65633 3.44167 2.0125 2.9125 2.4625 2.4625C2.9125 2.0125 3.44167 1.65617 4.05 1.3935C4.65833 1.13117 5.30833 1 6 1C6.69167 1 7.34167 1.13117 7.95 1.3935C8.55833 1.65617 9.0875 2.0125 9.5375 2.4625C9.9875 2.9125 10.3437 3.44167 10.606 4.05C10.8687 4.65833 11 5.30833 11 6C11 6.69167 10.8687 7.34167 10.606 7.95C10.3437 8.55833 9.9875 9.0875 9.5375 9.5375C9.0875 9.9875 8.55833 10.3437 7.95 10.606ZM5.9935 7.7935C6.13117 7.79783 6.24583 7.75417 6.3375 7.6625L7.65 6.35C7.74167 6.25833 7.7875 6.14167 7.7875 6C7.7875 5.85833 7.74167 5.74167 7.65 5.65L6.35 4.35C6.25833 4.25833 6.14167 4.2125 6 4.2125C5.85833 4.2125 5.74167 4.25833 5.65 4.35C5.55833 4.44167 5.51033 4.55617 5.506 4.6935C5.502 4.83117 5.54583 4.94583 5.6375 5.0375L6.1 5.5H4.5C4.35833 5.5 4.2395 5.54783 4.1435 5.6435C4.04783 5.7395 4 5.85833 4 6C4 6.14167 4.04583 6.26033 4.1375 6.356C4.22917 6.452 4.34583 6.5 4.4875 6.5H6.1L5.65 6.95C5.55833 7.04167 5.5125 7.15833 5.5125 7.3C5.5125 7.44167 5.55833 7.55833 5.65 7.65C5.74167 7.74167 5.85617 7.7895 5.9935 7.7935Z" fill="#246CBD"/>
</svg>
