<svg width="16" height="16" viewBox="0 0 16 16" fill="none" xmlns="http://www.w3.org/2000/svg">
<path fill-rule="evenodd" clip-rule="evenodd" d="M1.33331 8.00004C1.33331 4.31337 4.31331 1.33337 7.99998 1.33337C11.6666 1.33337 14.6666 4.31337 14.6666 8.00004C14.6666 11.6819 11.6819 14.6667 7.99998 14.6667C4.31331 14.6667 1.33331 11.6867 1.33331 8.00004ZM5.21331 5.17337L4.50665 5.88004L5.21331 6.58671L4.50665 7.29337L5.21331 8.00004L5.91998 7.29337L6.62665 8.00004L7.33331 7.29337L6.62665 6.58671L7.33331 5.88004L6.62665 5.17337L5.91998 5.88004L5.21331 5.17337ZM4.59331 11.6667C5.12665 10.3067 6.44665 9.33337 7.99998 9.33337C9.55331 9.33337 10.8733 10.3067 11.4066 11.6667H4.59331ZM10.7866 8.00004L11.4933 7.29337L10.7866 6.58671L11.4933 5.88004L10.7866 5.17337L10.08 5.88004L9.37331 5.17337L8.66665 5.88004L9.37331 6.58671L8.66665 7.29337L9.37331 8.00004L10.08 7.29337L10.7866 8.00004Z" fill="#FF356D"/>
</svg>
