<svg width="16" height="19" viewBox="0 0 16 19" fill="none" xmlns="http://www.w3.org/2000/svg">
<path fill-rule="evenodd" clip-rule="evenodd" d="M16.001 1.88334V18.2848C15.6227 17.9505 15.3264 17.6893 15.0836 17.4751C14.6361 17.0805 14.3699 16.8458 14.1062 16.6082C13.719 16.2593 13.3374 15.9043 12.3954 15.0279C12.2071 14.8528 11.9965 14.6568 11.7589 14.4359L12.2434 16.1272H1.87517C0.839518 16.1243 0.0013922 15.2841 0.000976563 14.2485V1.87877C0.000972391 0.843232 0.83888 0.00293948 1.87441 0H14.126C15.1617 0.00293855 15.9998 0.843109 16.0002 1.87877V1.88334H16.001ZM5.42018 8.68509C5.42117 8.15945 5.82168 7.72075 6.34506 7.67202L6.34886 7.67049H6.35039C6.86694 7.6903 7.27911 8.11542 7.27911 8.6373L7.27761 8.68749L7.27834 8.72873C7.27838 9.25079 6.86667 9.67998 6.34506 9.70163H6.34125C5.81806 9.65094 5.4192 9.21073 5.42018 8.68509ZM9.62909 9.54403C10.1359 9.57195 10.5729 9.19122 10.6146 8.6853L10.6138 8.68458L10.6146 8.64416C10.6146 8.12076 10.2016 7.69335 9.68128 7.67125C9.17365 7.6709 8.75804 8.07482 8.7439 8.58225C8.72976 9.08968 9.12223 9.51611 9.62909 9.54403ZM12.0469 5.15175C12.9065 6.82329 13.368 8.67094 13.3954 10.5504H13.3961L13.3893 10.5603C12.7615 11.4286 11.7547 11.9425 10.6831 11.9415L10.5986 11.9408C10.5986 11.9408 10.2694 11.5476 9.99517 11.2002L10.015 11.1964C10.6686 11.0361 11.2459 10.6531 11.6477 10.1133C11.3317 10.3231 10.9918 10.5002 10.5978 10.6509L10.642 10.6349C9.83069 10.972 8.96065 11.1449 8.08212 11.1439C6.96685 11.1476 5.86892 10.8679 4.89141 10.3309C4.88676 10.3276 4.86629 10.3157 4.83626 10.2984C4.75804 10.2532 4.61499 10.1706 4.5181 10.1024L4.52343 10.11C4.91539 10.6404 5.47878 11.0189 6.11802 11.1812C5.84375 11.5286 5.50548 11.94 5.50548 11.94H5.51005C4.40567 11.9711 3.35837 11.45 2.71704 10.5504V10.5397C2.74904 8.60073 3.23206 6.77149 4.03355 5.22032L4.0244 5.22718C4.7618 4.64369 5.66333 4.30562 6.60257 4.26037L6.69399 4.37008L6.65133 4.37922C5.78689 4.59864 4.98084 5.00427 4.28953 5.56773C4.28953 5.56773 4.49067 5.4565 4.82894 5.30108L4.78018 5.32089C5.75385 4.88129 6.83417 4.63673 7.97164 4.63673C9.2592 4.63273 10.527 4.9529 11.6583 5.56773L11.669 5.57612C11.0199 5.04433 10.258 4.64435 9.38186 4.40665L9.50986 4.26037L9.52052 4.26113C10.4523 4.30691 11.3467 4.64221 12.0789 5.22032L12.0469 5.15175Z" fill="white"/>
</svg>
