<svg width="17" height="17" viewBox="0 0 17 17" fill="none" xmlns="http://www.w3.org/2000/svg">
  <path fill-rule="evenodd" clip-rule="evenodd" d="M5.185 16.3302C6.21917 16.7767 7.32417 17 8.5 17C9.67583 17 10.7808 16.7767 11.815 16.3302C12.8492 15.8842 13.7487 15.2788 14.5138 14.5138C15.2788 13.7487 15.8842 12.8492 16.3302 11.815C16.7767 10.7808 17 9.67583 17 8.5C17 7.32417 16.7767 6.21917 16.3302 5.185C15.8842 4.15083 15.2788 3.25125 14.5138 2.48625C13.7487 1.72125 12.8492 1.11548 11.815 0.66895C10.7808 0.222983 9.67583 0 8.5 0C7.32417 0 6.21917 0.222983 5.185 0.66895C4.15083 1.11548 3.25125 1.72125 2.48625 2.48625C1.72125 3.25125 1.11577 4.15083 0.6698 5.185C0.223267 6.21917 0 7.32417 0 8.5C0 9.67583 0.223267 10.7808 0.6698 11.815C1.11577 12.8492 1.72125 13.7487 2.48625 14.5138C3.25125 15.2788 4.15083 15.8842 5.185 16.3302ZM8.5 5.95C8.74083 5.95 8.94285 5.8684 9.10605 5.7052C9.26868 5.54257 9.35 5.34083 9.35 5.1C9.35 4.85917 9.26868 4.65715 9.10605 4.49395C8.94285 4.33132 8.74083 4.25 8.5 4.25C8.25917 4.25 8.05743 4.33132 7.8948 4.49395C7.7316 4.65715 7.65 4.85917 7.65 5.1C7.65 5.34083 7.7316 5.54257 7.8948 5.7052C8.05743 5.8684 8.25917 5.95 8.5 5.95ZM8.5 12.75C8.74083 12.75 8.94285 12.6684 9.10605 12.5052C9.26868 12.3426 9.35 12.1408 9.35 11.9V8.47875C9.35 8.23792 9.26868 8.03958 9.10605 7.88375C8.94285 7.72792 8.74083 7.65 8.5 7.65C8.25917 7.65 8.05743 7.73132 7.8948 7.89395C7.7316 8.05715 7.65 8.25917 7.65 8.5V11.9212C7.65 12.1621 7.7316 12.3604 7.8948 12.5163C8.05743 12.6721 8.25917 12.75 8.5 12.75Z" fill="#4FCDF2"/>
</svg>
