<svg xmlns="http://www.w3.org/2000/svg" viewBox="0 -0.5 11 16" shape-rendering="crispEdges">
<metadata>Made with Pixels to Svg https://codepen.io/shshaw/pen/XbxvNj</metadata>
<path stroke="#000000" d="M3 0h6M2 1h1M9 1h1M1 2h1M10 2h1M1 3h1M10 3h1M1 4h1M10 4h1M1 5h1M10 5h1M0 6h1M10 6h1M0 7h1M4 7h1M10 7h1M1 8h1M10 8h1M2 9h1M9 9h1M1 10h1M3 10h6M0 11h1M8 11h2M0 12h1M2 12h1M8 12h1M10 12h1M0 13h3M5 13h1M8 13h3M2 14h1M4 14h1M6 14h1M8 14h1M2 15h2M6 15h2" />
<path stroke="#854e23" d="M3 1h2M2 4h8M2 5h3M2 6h2M1 7h3M2 8h3M3 9h3M2 10h1M1 11h3M1 12h1M3 14h1M7 14h1" />
<path stroke="#9a5d27" d="M5 1h4M5 5h5M1 6h1M5 6h4M5 7h4M5 8h5M6 9h3M5 11h1M7 11h1M9 12h1" />
<path stroke="#d8d4d5" d="M2 2h8M2 3h8M7 12h1" />
<path stroke="#1a1618" d="M4 6h1M9 6h1M9 7h1" />
<path stroke="#a1292b" d="M4 11h1M6 11h1M3 12h4M3 13h2M6 13h2" />
</svg>