<svg xmlns="http://www.w3.org/2000/svg" viewBox="0 -0.5 16 17" shape-rendering="crispEdges">
<metadata>Made with Pixels to Svg https://codepen.io/shshaw/pen/XbxvNj</metadata>
<path stroke="#000000" d="M2 0h1M11 0h1M3 1h1M8 1h2M11 1h2M1 2h1M10 2h1M11 3h1M13 3h1M2 4h1M11 4h2M2 5h1M3 6h1M12 6h1M3 7h1M12 8h1M3 9h1M12 9h1M4 10h1M3 11h1M5 11h2M8 11h1M10 11h1M12 11h2M11 12h1M14 12h1M1 13h1M10 13h1M14 14h1M2 15h3M6 15h1M10 15h1M4 16h2M8 16h2" />
<path stroke="#010000" d="M1 1h1M5 1h1M4 14h1M11 15h1" />
<path stroke="#222322" d="M2 1h1M2 2h1M3 4h1M3 5h1M11 6h1M9 7h1M9 12h1" />
<path stroke="#010100" d="M6 1h1M10 14h1" />
<path stroke="#000101" d="M7 1h1M13 2h1M4 13h1M15 13h1" />
<path stroke="#222222" d="M3 2h1M11 2h1M3 3h2M10 3h1M12 3h1M5 4h1M4 6h3M10 6h1M4 7h2M7 7h1M11 7h1M7 8h1M9 8h1M4 9h1M6 9h1M5 12h1M5 13h1M9 13h1" />
<path stroke="#010001" d="M4 2h1M2 3h1M12 7h1" />
<path stroke="#fed614" d="M5 2h1M9 4h1M10 5h1M9 6h1M9 15h1" />
<path stroke="#fed714" d="M6 2h1M8 2h2M6 3h3M10 4h1M7 5h3M7 6h2M8 7h1M7 13h2" />
<path stroke="#ffd614" d="M7 2h1" />
<path stroke="#222223" d="M12 2h1M4 5h1M5 8h2" />
<path stroke="#fed715" d="M5 3h1M6 4h1M8 4h1M6 5h1" />
<path stroke="#ffd715" d="M9 3h1" />
<path stroke="#232222" d="M4 4h1M5 5h1M4 8h1M5 9h1M11 9h1" />
<path stroke="#ffd615" d="M7 4h1" />
<path stroke="#000100" d="M13 4h1M7 11h1M2 12h1M10 12h1M11 14h1M1 15h1M8 15h1M13 15h1" />
<path stroke="#232223" d="M11 5h1M10 8h1" />
<path stroke="#000001" d="M12 5h1M3 8h1M11 10h1M9 11h1M0 14h1M12 15h1" />
<path stroke="#f1f3f3" d="M6 7h1" />
<path stroke="#f1f3f2" d="M10 7h1" />
<path stroke="#ffd714" d="M8 8h1" />
<path stroke="#222323" d="M11 8h1M10 9h1M5 10h1" />
<path stroke="#d28766" d="M7 9h1" />
<path stroke="#d38766" d="M8 9h2M6 10h1" />
<path stroke="#e5b396" d="M7 10h1M10 10h1" />
<path stroke="#e4b297" d="M8 10h1" />
<path stroke="#e4b396" d="M9 10h1" />
<path stroke="#364a86" d="M4 11h1M6 14h1M7 15h1" />
<path stroke="#364b86" d="M3 12h1" />
<path stroke="#374a87" d="M4 12h1M5 14h1" />
<path stroke="#feb30e" d="M6 12h1M8 12h1" />
<path stroke="#ffb30e" d="M7 12h1" />
<path stroke="#f1f4f5" d="M12 12h1M13 14h1" />
<path stroke="#f0f4f4" d="M13 12h1M1 14h1M3 14h1" />
<path stroke="#f1f4f4" d="M2 13h1M12 14h1" />
<path stroke="#d28667" d="M3 13h1" />
<path stroke="#feb20f" d="M6 13h1" />
<path stroke="#f8d1b8" d="M11 13h1" />
<path stroke="#c9ced2" d="M12 13h1" />
<path stroke="#c8ced2" d="M13 13h2" />
<path stroke="#c8cfd3" d="M2 14h1" />
<path stroke="#4f67ac" d="M7 14h1" />
<path stroke="#4e66ac" d="M8 14h1" />
<path stroke="#4e66ad" d="M9 14h1" />
<path stroke="#feb30f" d="M5 15h1" />
</svg>