<svg xmlns="http://www.w3.org/2000/svg" viewBox="0 -0.5 13 17" shape-rendering="crispEdges">
<metadata>Made with Pixels to Svg https://codepen.io/shshaw/pen/XbxvNj</metadata>
<path stroke="#010000" d="M9 0h1M3 2h1M2 6h1M1 7h1M11 9h1M4 11h2M7 11h1M3 16h1" />
<path stroke="#000001" d="M10 0h1M12 2h1M2 3h1M11 6h1M3 10h1M2 11h1M1 12h1M10 12h1M3 13h1M9 13h1M12 14h1M3 15h1" />
<path stroke="#000000" d="M11 0h1M4 1h1M8 1h1M12 1h1M2 5h1M11 5h1M5 8h1M11 8h1M2 9h1M9 12h1M11 12h1M0 14h1M6 14h1M9 14h1M2 15h1M7 15h1M10 15h2M4 16h1M8 16h1" />
<path stroke="#000100" d="M5 1h1M7 1h1M11 3h1M2 4h1M11 4h1M1 8h1M8 11h2M1 15h1M5 15h1M7 16h1" />
<path stroke="#010001" d="M6 1h1M11 7h1" />
<path stroke="#b47f43" d="M9 1h1M4 2h1M3 4h1" />
<path stroke="#c78c49" d="M10 1h2M6 3h1M4 4h1M3 5h1" />
<path stroke="#b47e43" d="M5 2h1" />
<path stroke="#b57f42" d="M6 2h1M4 3h1" />
<path stroke="#c78d48" d="M7 2h1" />
<path stroke="#c68c49" d="M8 2h1M10 2h1M9 3h1" />
<path stroke="#c78d49" d="M9 2h1M5 3h1M7 3h1" />
<path stroke="#c68c48" d="M11 2h1" />
<path stroke="#b57e42" d="M3 3h1" />
<path stroke="#c78c48" d="M8 3h1" />
<path stroke="#d7b18b" d="M10 3h1M8 4h1M4 5h1M3 6h1" />
<path stroke="#d6b18a" d="M5 4h1" />
<path stroke="#d7b08b" d="M6 4h1" />
<path stroke="#d6b08b" d="M7 4h1" />
<path stroke="#d7b08a" d="M9 4h1" />
<path stroke="#eec39a" d="M10 4h1M5 5h2M9 5h1M7 6h1M2 7h1M6 7h1M9 7h1M6 8h1M9 8h1M7 9h1M7 10h1" />
<path stroke="#eec39b" d="M7 5h1M6 6h1M10 6h1M7 7h1M9 10h1" />
<path stroke="#efc39a" d="M8 5h1M8 9h2M7 12h1" />
<path stroke="#efc29b" d="M10 5h1M7 8h1" />
<path stroke="#e4bd97" d="M4 6h1M3 7h1M3 8h2M4 9h2M2 12h1" />
<path stroke="#eec29a" d="M5 6h1M8 6h1M8 7h1" />
<path stroke="#efc29a" d="M9 6h1M10 9h1M8 10h1M8 12h1" />
<path stroke="#e4bc97" d="M4 7h1M6 10h1" />
<path stroke="#1a1619" d="M5 7h1" />
<path stroke="#1b1718" d="M10 7h1" />
<path stroke="#e5bd96" d="M2 8h1M5 12h1" />
<path stroke="#efc39b" d="M8 8h1" />
<path stroke="#1a1618" d="M10 8h1" />
<path stroke="#e4bd96" d="M3 9h1M4 10h1M3 11h1M4 12h1" />
<path stroke="#eec29b" d="M6 9h1M8 15h1" />
<path stroke="#e5bd97" d="M5 10h1M6 12h1" />
<path stroke="#010100" d="M10 10h1M12 13h1M3 14h1" />
<path stroke="#000101" d="M6 11h1" />
<path stroke="#e4bc96" d="M3 12h1" />
<path stroke="#010101" d="M0 13h1" />
<path stroke="#cb5a55" d="M1 13h1M8 14h1" />
<path stroke="#b04641" d="M2 13h1M11 13h1" />
<path stroke="#feffff" d="M4 13h1" />
<path stroke="#fefeff" d="M5 13h1" />
<path stroke="#fffffe" d="M6 13h2" />
<path stroke="#ffffff" d="M8 13h1" />
<path stroke="#cb5a54" d="M10 13h1" />
<path stroke="#b04740" d="M1 14h2M4 14h1" />
<path stroke="#b04741" d="M5 14h1" />
<path stroke="#cb5b54" d="M7 14h1" />
<path stroke="#b14640" d="M10 14h1" />
<path stroke="#b14741" d="M11 14h1" />
<path stroke="#e5bc96" d="M4 15h1" />
</svg>