<svg xmlns="http://www.w3.org/2000/svg" viewBox="0 -0.5 21 16" shape-rendering="crispEdges">
<metadata>Made with Pixels to Svg https://codepen.io/shshaw/pen/XbxvNj</metadata>
<path stroke="#000000" d="M6 0h6M5 1h1M12 1h1M4 2h1M13 2h1M1 3h1M3 3h2M14 3h1M0 4h1M2 4h1M14 4h1M1 5h1M3 5h1M14 5h1M2 6h2M8 6h1M13 6h2M4 7h1M14 7h1M5 8h1M13 8h1M5 9h1M12 9h1M16 9h2M4 10h1M7 10h2M10 10h2M15 10h1M18 10h1M3 11h1M11 11h4M16 11h4M3 12h1M12 12h1M20 12h1M3 13h3M12 13h3M16 13h4M7 14h3M11 14h1M15 14h1M18 14h1M5 15h2M9 15h2M16 15h2" />
<path stroke="#4d5d11" d="M6 1h2M5 2h2M5 3h2M5 4h2M4 6h1M5 7h2M6 8h2M6 9h1M8 9h2M5 10h1M4 11h2M10 11h1M4 12h3M11 12h1M6 14h1M10 14h1" />
<path stroke="#657b17" d="M8 1h4M7 2h6M7 3h7M7 4h7M7 7h7M8 8h3M12 8h1M11 9h1" />
<path stroke="#b21713" d="M1 4h1M3 4h2M2 5h1M4 5h3M5 6h2" />
<path stroke="#d12b35" d="M7 5h7M9 6h3" />
<path stroke="#d4e3e0" d="M7 6h1M12 6h1M11 8h1" />
<path stroke="#666666" d="M7 9h1M10 9h1M6 10h1M9 10h1M16 10h2M6 11h1M8 11h1M15 11h1M7 12h1M10 12h1M15 12h5M8 13h2M15 13h1M16 14h2" />
<path stroke="#bd9631" d="M7 11h1M9 11h1" />
<path stroke="#b98927" d="M8 12h2" />
<path stroke="#753505" d="M13 12h2M6 13h1M5 14h1" />
<path stroke="#5c3636" d="M7 13h1M10 13h2" />
</svg>