<svg xmlns="http://www.w3.org/2000/svg" viewBox="0 -0.5 15 17" shape-rendering="crispEdges">
<metadata>Made with Pixels to Svg https://codepen.io/shshaw/pen/XbxvNj</metadata>
<path stroke="rgba(64,64,64,0.03137254901960784)" d="M6 0h1" />
<path stroke="#000000" d="M6 1h6M5 2h1M12 2h1M4 3h1M13 3h1M1 4h1M3 4h1M14 4h1M0 5h1M2 5h1M14 5h1M1 6h1M3 6h1M14 6h1M2 7h2M8 7h1M13 7h2M4 8h1M14 8h1M4 9h1M10 9h2M13 9h1M5 10h1M12 10h1M4 11h1M6 11h6M3 12h1M12 12h1M3 13h1M5 13h1M11 13h1M13 13h1M3 14h2M11 14h3M5 15h1M7 15h1M9 15h1M11 15h1M6 16h1M9 16h1" />
<path stroke="#4d5d11" d="M6 2h2M5 3h2M4 4h2M5 5h1M4 7h1M5 8h2M5 9h2M6 10h2M5 11h1M4 12h3M10 12h2M4 13h1M6 13h1M10 13h1M12 13h1" />
<path stroke="#657b17" d="M8 2h4M7 3h6M6 4h8M6 5h8M7 8h7M7 9h3M12 9h1M8 10h4" />
<path stroke="#c3450a" d="M1 5h1M3 5h2M4 6h2M5 7h1M6 15h1M10 15h1" />
<path stroke="#e84a00" d="M2 6h1M6 6h8M6 7h1M9 7h3M7 14h1M9 14h1" />
<path stroke="#d4e3e0" d="M7 7h1M12 7h1" />
<path stroke="#bd9631" d="M7 12h3" />
<path stroke="#6a6a5d" d="M7 13h1M9 13h1" />
<path stroke="#b98927" d="M8 13h1" />
<path stroke="#5c3636" d="M5 14h2M8 14h1M10 14h1" />
<path stroke="#793800" d="M5 16h1M10 16h1" />
</svg>