<svg xmlns="http://www.w3.org/2000/svg" viewBox="0 -0.5 18 16" shape-rendering="crispEdges">
<metadata>Made with Pixels to Svg https://codepen.io/shshaw/pen/XbxvNj</metadata>
<path stroke="#000000" d="M6 0h6M5 1h1M12 1h1M4 2h1M13 2h1M1 3h1M3 3h1M14 3h1M0 4h1M2 4h1M14 4h1M1 5h1M3 5h1M14 5h1M2 6h2M8 6h1M13 6h2M4 7h1M14 7h1M4 8h1M11 8h1M13 8h1M15 8h1M5 9h1M12 9h1M14 9h1M16 9h1M4 10h1M6 10h6M13 10h1M15 10h1M17 10h1M3 11h1M12 11h1M14 11h2M17 11h1M3 12h1M5 12h1M11 12h1M13 12h1M15 12h1M17 12h1M3 13h3M11 13h3M15 13h1M17 13h1M4 14h1M7 14h3M11 14h1M16 14h1M4 15h1M6 15h1M9 15h2" />
<path stroke="#4d5d11" d="M6 1h3M5 2h2M4 3h2M5 4h1M4 6h1M5 7h1M5 8h2M6 9h3M5 10h1M4 11h3M4 12h1M6 12h1M5 14h1" />
<path stroke="#657b17" d="M9 1h3M7 2h6M6 3h8M6 4h8M6 7h8M7 8h4M12 8h1M9 9h3M10 11h2M10 12h1M10 14h1" />
<path stroke="#c3450a" d="M1 4h1M3 4h2M4 5h2M5 6h1M14 10h1M16 11h1M7 13h1" />
<path stroke="#e84a00" d="M2 5h1M6 5h8M6 6h1M9 6h3M13 11h1M16 12h1M6 14h1" />
<path stroke="#d4e3e0" d="M7 6h1M12 6h1" />
<path stroke="#6a6a5d" d="M15 9h1M16 10h1M7 12h2" />
<path stroke="#ce9d14" d="M7 11h3" />
<path stroke="#b98927" d="M9 12h1" />
<path stroke="#793800" d="M12 12h1M16 13h1M5 15h1" />
<path stroke="#5c3636" d="M6 13h1M8 13h3" />
</svg>