<svg xmlns="http://www.w3.org/2000/svg" viewBox="0 -0.5 21 16" shape-rendering="crispEdges">
<metadata>Made with Pixels to Svg https://codepen.io/shshaw/pen/XbxvNj</metadata>
<path stroke="#000000" d="M3 0h8M2 1h1M11 1h1M1 2h1M12 2h1M1 3h1M12 3h1M1 4h1M12 4h1M1 5h1M12 5h1M19 5h2M1 6h1M5 6h1M10 6h1M12 6h1M18 6h1M20 6h1M0 7h2M5 7h1M10 7h1M13 7h1M17 7h1M19 7h1M0 8h1M13 8h1M16 8h1M18 8h1M0 9h1M13 9h1M15 9h1M17 9h1M0 10h13M14 10h1M16 10h1M1 11h1M10 11h2M13 11h1M15 11h1M1 12h1M9 12h1M12 12h1M14 12h1M1 13h3M10 13h1M13 13h1M3 14h1M5 14h1M7 14h1M9 14h1M11 14h2M3 15h2M7 15h2M10 15h1" />
<path stroke="#151515" d="M3 1h4M9 1h1M3 2h2M3 3h2M2 4h1M2 5h1M2 6h1M2 7h1M12 7h1M1 8h1M12 8h1M1 9h1M12 9h1" />
<path stroke="#404040" d="M7 1h2M7 2h2M5 3h6M3 4h3M10 4h1M3 5h1M3 6h1M11 9h1" />
<path stroke="#191919" d="M10 1h1M2 2h1M5 2h2M9 2h3M2 3h1M11 3h1M11 4h1M5 11h1M7 11h1M5 12h1M7 12h1M4 13h2M7 13h2M4 14h1M6 14h1M8 14h1" />
<path stroke="#666666" d="M6 4h4M6 5h1M9 5h1M3 8h3M10 8h2M3 9h2M2 11h1M2 12h1" />
<path stroke="#2e2e2e" d="M4 5h2M7 5h2M10 5h2M4 6h1M7 6h2M11 6h1M4 7h1M6 7h4M11 7h1M6 13h1" />
<path stroke="#535353" d="M6 6h1M9 6h1M3 7h1M2 8h1M2 9h1M5 9h1M10 9h1M3 11h1M3 12h2M8 12h1M13 12h1" />
<path stroke="#fe0000" d="M19 6h1M18 7h1M17 8h1M16 9h1M15 10h1M14 11h1" />
<path stroke="#777777" d="M6 8h1M9 8h1" />
<path stroke="#131313" d="M7 8h2M6 9h4" />
<path stroke="#888888" d="M4 11h1M8 11h1M9 13h1" />
<path stroke="#1a6753" d="M6 11h1" />
<path stroke="#616161" d="M9 11h1M10 12h1M11 13h1" />
<path stroke="#85110e" d="M6 12h1" />
<path stroke="#212121" d="M11 12h1M12 13h1" />
</svg>