<svg xmlns="http://www.w3.org/2000/svg" viewBox="0 -0.5 14 17" shape-rendering="crispEdges">
<metadata>Made with Pixels to Svg https://codepen.io/shshaw/pen/XbxvNj</metadata>
<path stroke="#000000" d="M4 0h6M3 1h1M10 1h1M2 2h10M1 3h1M12 3h1M1 4h1M13 4h1M1 5h1M13 5h1M0 6h1M13 6h1M0 7h1M5 7h1M10 7h1M13 7h1M1 8h1M13 8h1M0 9h1M13 9h1M0 10h1M12 10h1M0 11h1M2 11h1M12 11h1M1 12h1M10 12h1M12 12h1M1 13h1M3 13h1M9 13h1M11 13h1M1 14h3M9 14h3M3 15h1M9 15h1M3 16h2M7 16h2" />
<path stroke="#c84968" d="M4 1h1M6 1h1M8 1h1M2 3h1M11 3h1M3 4h1M12 4h1M2 5h1M12 6h1M1 7h1M12 8h1M1 10h1M1 11h1M11 11h1" />
<path stroke="#f4f3d5" d="M5 1h1M7 1h1M9 1h1M3 3h1M10 3h1M2 4h1M11 4h1M12 5h1M1 6h1M12 7h1M1 9h1M12 9h1M2 10h1M11 10h1M11 12h1M10 13h1" />
<path stroke="#211e27" d="M4 3h6M2 8h1M2 9h3M7 9h3M11 9h1M3 10h5M9 10h2M4 11h7M6 12h4" />
<path stroke="#bd9174" d="M4 4h7M3 5h2M3 6h1M2 7h2M3 8h1M8 10h1" />
<path stroke="#e7b695" d="M5 5h7M2 6h1M4 6h8M6 7h3M11 7h1M4 8h8M5 9h2M10 9h1" />
<path stroke="#ffffff" d="M4 7h1M9 7h1" />
<path stroke="#d7d6d5" d="M3 11h1M2 12h4M4 13h5M4 14h1M4 15h1" />
<path stroke="#f9f9ec" d="M2 13h1M5 14h4M5 15h4" />
</svg>