<svg xmlns="http://www.w3.org/2000/svg" viewBox="0 -0.5 11 16" shape-rendering="crispEdges">
<metadata>Made with Pixels to Svg https://codepen.io/shshaw/pen/XbxvNj</metadata>
<path stroke="#000001" d="M2 0h1M1 1h1M1 5h1M9 13h2M4 14h1M8 14h1" />
<path stroke="#000100" d="M3 0h1M6 0h1M1 2h1M10 6h1M0 7h1M6 10h1M8 10h1M0 11h1M9 11h1M0 12h1M2 12h1M3 15h1M7 15h1" />
<path stroke="#010100" d="M4 0h2M10 2h1M0 10h1" />
<path stroke="#000000" d="M7 0h1M10 1h1M10 3h1M1 4h1M10 4h1M10 5h1M1 8h1M10 8h1M1 9h2M3 10h1M10 11h1M0 13h1M2 13h1M6 14h1M2 15h1" />
<path stroke="#010000" d="M8 0h2M0 6h1M10 7h1M9 9h1M5 10h1M8 13h1" />
<path stroke="#1e100a" d="M2 1h1" />
<path stroke="#1e110b" d="M3 1h1" />
<path stroke="#1f100b" d="M4 1h1M2 2h1M2 3h1M2 4h1M2 5h1" />
<path stroke="#2f1f0e" d="M5 1h1M7 1h1" />
<path stroke="#2f1f0f" d="M6 1h1M8 1h2M7 2h1" />
<path stroke="#1f100a" d="M3 2h1M3 3h1" />
<path stroke="#2f1e0f" d="M4 2h3M8 2h2" />
<path stroke="#010001" d="M1 3h1M4 10h1M7 10h1M10 12h1M1 13h1M6 15h1" />
<path stroke="#388e3d" d="M4 3h1M8 9h1" />
<path stroke="#398e3d" d="M5 3h2M3 8h1" />
<path stroke="#398e3c" d="M7 3h1M1 12h1" />
<path stroke="#33691e" d="M8 3h2M8 4h1" />
<path stroke="#1f110a" d="M3 4h1" />
<path stroke="#388e3c" d="M4 4h1M3 5h1M2 8h1" />
<path stroke="#4caf51" d="M5 4h1M1 6h1" />
<path stroke="#4caf50" d="M6 4h1M4 5h1M7 5h1M3 6h1M6 7h1M8 7h1M4 8h1M8 8h1" />
<path stroke="#4daf50" d="M7 4h1M9 5h1M6 6h1M5 8h1" />
<path stroke="#4cae50" d="M9 4h1M9 8h1M9 12h1" />
<path stroke="#42a046" d="M5 5h1" />
<path stroke="#4cae51" d="M6 5h1M7 6h1" />
<path stroke="#43a046" d="M8 5h1M6 8h1" />
<path stroke="#398f3d" d="M2 6h1" />
<path stroke="#1a1618" d="M4 6h1M9 6h1M4 7h1" />
<path stroke="#43a047" d="M5 6h1" />
<path stroke="#4daf51" d="M8 6h1M3 7h1M5 7h1M7 7h1" />
<path stroke="#388f3c" d="M1 7h2M5 9h1" />
<path stroke="#1b1618" d="M9 7h1" />
<path stroke="#42a047" d="M7 8h1" />
<path stroke="#32681e" d="M3 9h1" />
<path stroke="#32691e" d="M4 9h1" />
<path stroke="#558b2f" d="M6 9h2" />
<path stroke="#009999" d="M1 10h1M6 11h1M3 12h1" />
<path stroke="#019899" d="M2 10h1" />
<path stroke="#009998" d="M1 11h1M3 11h1M4 12h1" />
<path stroke="#019999" d="M2 11h1M4 11h1" />
<path stroke="#009899" d="M5 11h1M7 11h1" />
<path stroke="#000101" d="M8 11h1M2 14h1" />
<path stroke="#01afaf" d="M5 12h1" />
<path stroke="#00aeaf" d="M6 12h2" />
<path stroke="#010101" d="M8 12h1" />
<path stroke="#3b3189" d="M3 13h2M3 14h1" />
<path stroke="#473ba5" d="M5 13h1" />
<path stroke="#463ba5" d="M6 13h1" />
<path stroke="#463aa5" d="M7 13h1M7 14h1" />
</svg>