<svg xmlns="http://www.w3.org/2000/svg" viewBox="0 -0.5 19 22" shape-rendering="crispEdges">
<metadata>Made with Pixels to Svg https://codepen.io/shshaw/pen/XbxvNj</metadata>
<path stroke="#000000" d="M8 0h1M7 1h1M9 1h1M12 1h1M3 2h3M7 2h1M9 2h1M11 2h1M13 2h2M2 3h1M6 3h1M10 3h1M12 3h1M15 3h1M3 4h1M6 4h1M11 4h1M15 4h1M17 4h1M4 5h1M16 5h1M18 5h1M0 6h2M3 6h1M8 6h6M18 6h1M0 7h1M2 7h1M7 7h1M14 7h1M17 7h1M1 8h1M3 8h2M6 8h1M15 8h1M17 8h1M1 9h1M6 9h1M15 9h1M17 9h1M2 10h2M6 10h1M15 10h2M1 11h1M3 11h1M6 11h1M9 11h3M13 11h2M2 12h1M5 12h1M10 12h1M14 12h1M3 13h1M5 13h1M15 13h1M4 14h1M6 14h1M11 14h2M15 14h1M4 15h1M7 15h1M14 15h1M16 15h1M6 16h1M8 16h6M16 16h1M5 17h1M13 17h2M5 18h1M15 18h1M5 19h1M13 19h3M6 20h2M9 20h1M11 20h1M13 20h1M7 21h2M11 21h3" />
<path stroke="#efa027" d="M8 1h1M8 2h1M12 2h1M3 3h3M7 3h1M13 3h2M5 4h1M8 4h1M14 4h1M17 5h1M4 6h2M17 6h1M1 7h1M2 8h1M3 9h2M2 11h1M4 13h1M6 15h1M9 15h1M14 16h2M7 18h1M13 18h1" />
<path stroke="#f3be2b" d="M8 3h2M4 4h1M7 4h1M9 4h2M12 4h2M5 5h3M11 5h1M15 5h1M16 6h1M4 7h2M5 8h1M2 9h1M4 10h1M15 15h1" />
<path stroke="#f3d62b" d="M8 5h3M12 5h3M6 6h2M14 6h2M6 7h1M15 7h2M16 8h1M5 9h1M16 9h1M5 10h1M4 11h2M3 12h2M5 14h1M5 15h1M7 19h1" />
<path stroke="#a2a198" d="M8 7h6M7 8h3M13 8h2M7 9h2M14 9h1M7 10h2M14 10h1M8 11h1M6 12h2M6 13h3M7 14h4M13 14h2M8 15h1M10 15h4M14 18h1" />
<path stroke="#d1cfc5" d="M10 8h3M9 9h5M9 10h5M12 11h1" />
<path stroke="#25201b" d="M7 11h1M15 11h1M8 12h2M12 12h1M9 13h3M13 13h2" />
<path stroke="#888888" d="M11 12h1" />
<path stroke="#777777" d="M13 12h1M12 13h1" />
<path stroke="#2a231c" d="M15 12h1" />
<path stroke="#212121" d="M7 16h1M7 17h1M9 17h1" />
<path stroke="#616161" d="M6 17h1M8 18h1M10 18h1" />
<path stroke="#808080" d="M8 17h1M12 17h1M9 18h1M11 18h1M10 19h1" />
<path stroke="#1a1b1c" d="M10 17h2M6 18h1M6 19h1M8 19h1M12 19h1" />
<path stroke="#545454" d="M12 18h1M9 19h1M11 19h1" />
<path stroke="#666666" d="M8 20h1M12 20h1" />
</svg>