<svg xmlns="http://www.w3.org/2000/svg" viewBox="0 -0.5 20 17" shape-rendering="crispEdges">
<metadata>Made with Pixels to Svg https://codepen.io/shshaw/pen/XbxvNj</metadata>
<path stroke="#000000" d="M8 0h6M7 1h1M14 1h1M6 2h1M15 2h1M1 3h1M5 3h1M16 3h1M0 4h1M2 4h1M5 4h1M16 4h1M18 4h2M1 5h1M3 5h1M5 5h1M16 5h2M19 5h1M2 6h1M4 6h2M16 6h1M18 6h1M3 7h1M9 7h1M13 7h1M17 7h1M4 8h1M9 8h2M13 8h2M16 8h1M5 9h1M15 9h1M6 10h1M15 10h1M6 11h1M8 11h7M5 12h1M13 12h2M5 13h1M7 13h1M13 13h1M15 13h1M5 14h3M10 14h1M13 14h3M7 15h1M9 15h1M11 15h1M13 15h1M7 16h2M11 16h2" />
<path stroke="#350f09" d="M8 1h6M7 2h1M14 2h1M6 3h1M15 3h1M6 4h1M15 4h1M6 5h1M15 5h1M6 6h1M5 7h2M15 7h1M5 8h1M15 8h1M6 9h1M7 10h1M14 10h1" />
<path stroke="#85110e" d="M8 2h3M7 3h1M9 3h1M7 4h1M6 8h1M7 9h3M13 9h2M8 10h3M12 10h2M7 11h1M7 12h1M6 13h1M8 14h1M8 15h1" />
<path stroke="#b21713" d="M11 2h3M10 3h4M10 4h3M11 5h2M10 9h3M11 10h1M9 12h3M10 13h1M14 13h1M12 14h1M12 15h1" />
<path stroke="#3c3b3b" d="M8 3h1M14 3h1M8 4h2M13 4h2M7 5h4M13 5h2M7 6h2M11 6h2M15 6h1M7 7h1M7 8h1M6 12h1M8 12h1" />
<path stroke="#25201b" d="M1 4h1M2 5h1M18 5h1M3 6h1M17 6h1M4 7h1M16 7h1" />
<path stroke="#616161" d="M9 6h2M13 6h2M8 7h1M11 7h2M8 8h1M11 8h2M12 12h1M8 13h2M11 13h2M9 14h1M11 14h1" />
<path stroke="#ffffff" d="M10 7h1M14 7h1" />
</svg>