<svg xmlns="http://www.w3.org/2000/svg" viewBox="0 -0.5 16 18" shape-rendering="crispEdges">
<metadata>Made with Pixels to Svg https://codepen.io/shshaw/pen/XbxvNj</metadata>
<path stroke="#000000" d="M6 0h2M9 0h2M5 1h1M8 1h1M11 1h1M4 2h1M12 2h1M4 3h1M12 3h1M2 4h3M12 4h3M1 5h1M15 5h1M2 6h2M12 6h3M1 7h3M12 7h1M0 8h3M6 8h1M11 8h2M2 9h1M6 9h1M11 9h2M3 10h1M12 10h1M4 11h1M11 11h1M3 12h8M2 13h1M4 13h2M10 13h2M2 14h1M4 14h2M10 14h1M12 14h1M2 15h2M6 15h2M10 15h3M3 16h1M6 16h1M10 16h1M4 17h2M8 17h2" />
<path stroke="#e8e7d3" d="M6 1h2M5 2h2M5 3h1M2 5h4" />
<path stroke="#f4f3d5" d="M9 1h2M7 2h5M6 3h6M6 5h9" />
<path stroke="#c6c6b9" d="M5 4h7" />
<path stroke="#bd9174" d="M4 6h8M4 7h2M4 8h1M3 9h2M4 10h1M5 11h2" />
<path stroke="#f8d0b8" d="M6 7h6M3 8h1M5 8h1M7 8h4M5 9h1M7 9h4M5 10h7M7 11h4" />
<path stroke="#fcc841" d="M3 13h1M3 14h1M6 14h1M9 14h1M11 14h1" />
<path stroke="#b21713" d="M6 13h4M7 14h2" />
<path stroke="#996128" d="M4 15h2M8 15h2" />
<path stroke="#329db1" d="M4 16h2M8 16h2" />
</svg>