<svg xmlns="http://www.w3.org/2000/svg" viewBox="0 -0.5 16 17" shape-rendering="crispEdges">
<metadata>Made with Pixels to Svg https://codepen.io/shshaw/pen/XbxvNj</metadata>
<path stroke="#000000" d="M1 0h3M12 0h1M14 0h1M0 1h1M4 1h1M6 1h6M13 1h1M15 1h1M1 2h2M5 2h1M12 2h1M14 2h1M3 3h1M13 3h1M4 4h1M13 4h1M4 5h1M13 5h1M4 6h1M13 6h1M3 7h1M13 7h1M3 8h1M13 8h1M4 9h1M13 9h1M5 10h1M12 10h1M4 11h1M6 11h6M3 12h1M11 12h2M3 13h1M5 13h1M11 13h1M13 13h1M3 14h3M11 14h3M5 15h1M7 15h1M9 15h1M11 15h1M5 16h2M9 16h2" />
<path stroke="#fcc841" d="M13 0h1M1 1h3M4 2h1" />
<path stroke="#b98927" d="M14 1h1M3 2h1M13 2h1M4 3h1" />
<path stroke="#af0f0f" d="M6 2h3M5 3h3M5 4h1M5 5h1M5 6h2M5 7h1M5 8h4M8 9h1M5 11h1M5 12h3M4 13h1M6 13h1" />
<path stroke="#cf1212" d="M9 2h3M8 3h5M6 4h7M6 5h7M7 6h6M8 7h3M9 8h4M9 9h2M9 12h2M10 13h1" />
<path stroke="#f8d0b8" d="M4 7h1M6 10h6M12 13h1" />
<path stroke="#ffffff" d="M6 7h1M11 7h1M8 12h1M7 13h1M9 13h1M8 14h1" />
<path stroke="#1a1618" d="M7 7h1M12 7h1" />
<path stroke="#f3b38d" d="M4 8h1M5 9h3M11 9h2" />
<path stroke="#ffb90c" d="M4 12h1M8 13h1M6 14h2M9 14h2M6 15h1M10 15h1" />
</svg>