<svg xmlns="http://www.w3.org/2000/svg" viewBox="0 -0.5 12 22" shape-rendering="crispEdges">
<metadata>Made with Pixels to Svg https://codepen.io/shshaw/pen/XbxvNj</metadata>
<path stroke="#000000" d="M6 0h2M5 1h1M8 1h1M4 2h1M6 2h2M9 2h1M4 3h1M6 3h2M9 3h1M5 4h1M8 4h1M6 5h2M4 6h6M3 7h1M10 7h1M2 8h1M11 8h1M2 9h1M11 9h1M1 10h2M11 10h1M0 11h1M11 11h1M0 12h1M11 12h1M1 13h1M11 13h1M2 14h1M11 14h1M3 15h1M10 15h1M2 16h1M4 16h6M1 17h1M9 17h2M1 18h1M3 18h1M9 18h1M11 18h1M1 19h3M9 19h3M3 20h1M5 20h1M7 20h1M9 20h1M3 21h2M7 21h2" />
<path stroke="#b21713" d="M6 1h2M5 2h1M8 2h1M5 3h1M8 3h1M6 4h2M7 7h3M9 8h2M10 9h1M6 15h4M5 17h4M4 18h2M8 18h1M10 18h1M4 19h2M8 19h1M4 20h1M8 20h1" />
<path stroke="#85110e" d="M4 7h3M3 8h3M3 9h1M3 10h1M2 11h2M3 12h1M3 13h1M3 14h2M4 15h2M3 16h1M2 17h3M2 18h1" />
<path stroke="#d08565" d="M6 8h2M4 9h2M4 10h1M1 11h1M4 11h1M1 12h2M4 12h1M2 13h1M4 13h1" />
<path stroke="#e7b695" d="M8 8h1M6 9h4M5 10h6M5 11h6M6 12h4M6 13h4M5 14h3M9 14h2" />
<path stroke="#1a1618" d="M5 12h1M10 12h1M5 13h1M10 13h1M8 14h1" />
<path stroke="#ffffff" d="M6 18h2M6 19h2" />
</svg>