<svg xmlns="http://www.w3.org/2000/svg" viewBox="0 -0.5 12 20" shape-rendering="crispEdges">
<metadata>Made with Pixels to Svg https://codepen.io/shshaw/pen/XbxvNj</metadata>
<path stroke="#000000" d="M8 0h1M7 1h1M9 1h1M5 2h1M7 2h1M9 2h1M4 3h1M6 3h2M9 3h1M4 4h2M9 4h1M3 5h1M10 5h1M2 6h1M11 6h1M2 7h1M11 7h1M1 8h2M11 8h1M0 9h1M11 9h1M0 10h1M11 10h1M1 11h1M11 11h1M2 12h1M11 12h1M3 13h1M10 13h1M2 14h1M4 14h6M1 15h1M9 15h2M1 16h1M3 16h1M9 16h1M11 16h1M1 17h3M9 17h3M3 18h1M5 18h1M7 18h1M9 18h1M3 19h2M7 19h2" />
<path stroke="#fcc841" d="M8 1h1M8 2h1M8 3h1M7 4h1M7 5h3M9 6h2M10 7h1M6 13h4M5 15h4M4 16h2M8 16h1M10 16h1M4 17h2M8 17h1M4 18h1M8 18h1" />
<path stroke="#d8a41e" d="M5 3h1M6 4h1M8 4h1M4 5h3M3 6h3M3 7h1M3 8h1M2 9h2M3 10h1M3 11h1M3 12h2M4 13h2M3 14h1M2 15h3M2 16h1" />
<path stroke="#d08565" d="M6 6h2M4 7h2M4 8h1M1 9h1M4 9h1M1 10h2M4 10h1M2 11h1M4 11h1M5 12h1" />
<path stroke="#e7b695" d="M8 6h1M6 7h4M5 8h6M5 9h6M6 10h4M6 11h4M6 12h5" />
<path stroke="#1a1618" d="M5 10h1M10 10h1M5 11h1M10 11h1" />
<path stroke="#ffffff" d="M6 16h2M6 17h2" />
</svg>