<svg xmlns="http://www.w3.org/2000/svg" viewBox="0 -0.5 12 21" shape-rendering="crispEdges">
<metadata>Made with Pixels to Svg https://codepen.io/shshaw/pen/XbxvNj</metadata>
<path stroke="#000000" d="M5 0h5M4 1h1M10 1h1M5 2h1M7 2h1M9 2h1M6 3h1M8 3h1M7 4h1M4 5h6M3 6h1M10 6h1M2 7h1M11 7h1M2 8h1M11 8h1M1 9h2M11 9h1M0 10h1M11 10h1M0 11h1M11 11h1M1 12h1M11 12h1M2 13h1M11 13h1M3 14h1M10 14h1M2 15h1M4 15h6M1 16h1M9 16h2M1 17h1M3 17h1M9 17h1M11 17h1M1 18h3M9 18h3M3 19h1M5 19h1M7 19h1M9 19h1M3 20h2M7 20h2" />
<path stroke="#3b345b" d="M5 1h3M6 2h1M8 2h1M4 6h4M3 7h3M3 8h1M3 9h1M2 10h2M3 11h1M3 12h1M3 13h2M4 14h2M3 15h1M2 16h3M2 17h1" />
<path stroke="#524388" d="M8 1h2M7 3h1M8 6h2M9 7h2M10 8h1M6 14h4M5 16h4M4 17h2M8 17h1M10 17h1M4 18h2M8 18h1M4 19h1M8 19h1" />
<path stroke="#d08565" d="M6 7h2M4 8h2M4 9h1M1 10h1M4 10h1M1 11h2M4 11h1M2 12h1M4 12h1" />
<path stroke="#e7b695" d="M8 7h1M6 8h4M5 9h6M5 10h6M6 11h4M6 12h4M5 13h3M9 13h2" />
<path stroke="#1a1618" d="M5 11h1M10 11h1M5 12h1M10 12h1M8 13h1" />
<path stroke="#ffffff" d="M6 17h2M6 18h2" />
</svg>