<svg xmlns="http://www.w3.org/2000/svg" viewBox="0 -0.5 15 18" shape-rendering="crispEdges">
<metadata>Made with Pixels to Svg https://codepen.io/shshaw/pen/XbxvNj</metadata>
<path stroke="#191919" d="M5 0h2M14 0h1M5 1h1M7 1h1M13 1h2M5 2h1M8 2h5M14 2h1M5 3h1M7 3h1M14 3h1M5 4h2M14 4h1M5 5h1M7 5h1M14 5h1M5 6h1M8 6h2M12 6h3M5 7h1M10 7h2M14 7h1M5 8h1M14 8h1M14 9h1M4 10h2M14 10h1M3 11h1M6 11h2M13 11h1M2 12h1M5 12h8M2 13h1M4 13h1M12 13h2M2 14h1M4 14h1M6 14h1M12 14h1M14 14h1M2 15h1M4 15h3M9 15h1M12 15h3M1 16h1M5 16h2M8 16h1M10 16h1M12 16h1M0 17h5M6 17h2M10 17h2" />
<path stroke="#353535" d="M6 1h1M6 2h2M13 2h1M6 3h1M13 3h1M5 11h1M4 12h1M3 13h1M3 14h1M3 15h1M2 16h3" />
<path stroke="#212121" d="M8 3h1M11 3h2M7 4h3M13 4h1M6 5h1M8 5h3M6 6h1M10 6h2M6 7h1M6 8h1M9 8h1M13 8h1M6 9h1M6 10h1M9 13h1" />
<path stroke="#292929" d="M9 3h2M10 4h3M11 5h3" />
<path stroke="#d38766" d="M7 6h1M7 7h3M12 7h2M7 8h1M7 9h1M7 10h1" />
<path stroke="#fbe5d7" d="M8 8h1M12 8h1" />
<path stroke="#e7b695" d="M10 8h2M8 9h6M8 10h6M8 11h5" />
<path stroke="#1c181b" d="M5 9h1" />
<path stroke="#535353" d="M4 11h1M3 12h1" />
<path stroke="#969a9a" d="M5 13h3M5 14h1M7 14h2M7 16h1" />
<path stroke="#fcf141" d="M8 13h1M10 13h1M9 14h1M7 15h2M10 15h2" />
<path stroke="#bbbdbd" d="M11 13h1M10 14h2M13 14h1M11 16h1" />
</svg>