<svg xmlns="http://www.w3.org/2000/svg" viewBox="0 -0.5 10 16" shape-rendering="crispEdges">
<metadata>Made with Pixels to Svg https://codepen.io/shshaw/pen/XbxvNj</metadata>
<path stroke="#010000" d="M2 0h2M5 0h1M0 3h1M0 8h1" />
<path stroke="#000100" d="M4 0h1M8 1h1M9 2h1M9 5h1M0 6h1M3 7h1M9 8h1M1 9h1M0 10h1M4 13h1M1 14h1M2 15h1" />
<path stroke="#000000" d="M6 0h1M0 2h1M9 3h1M9 6h1M8 9h1M0 12h1M9 12h1M0 13h1M9 13h1M0 14h1M7 14h1M1 15h1" />
<path stroke="#010100" d="M7 0h1M9 10h1" />
<path stroke="#010001" d="M1 1h1M9 4h1M0 5h1M3 14h1M5 14h1" />
<path stroke="#c4c4c4" d="M2 1h3" />
<path stroke="#c5c4c4" d="M5 1h1M1 4h1" />
<path stroke="#c4c4c5" d="M6 1h2M2 2h1" />
<path stroke="#c4c5c4" d="M1 2h1M1 5h1" />
<path stroke="#dddbdb" d="M3 2h1M8 2h1M4 11h1M8 11h1M4 12h1M6 13h1" />
<path stroke="#dcdbda" d="M4 2h1M7 2h1M1 7h1M1 8h1M8 12h1" />
<path stroke="#dddadb" d="M5 2h2M2 3h1M6 14h1" />
<path stroke="#c5c4c5" d="M1 3h1" />
<path stroke="#dddada" d="M3 3h1" />
<path stroke="#ebeaea" d="M4 3h1M6 3h1M4 4h1M6 4h2M3 5h1M6 6h1M6 7h1M7 9h1" />
<path stroke="#ebeaeb" d="M5 3h1M7 6h1M5 7h1M4 8h1M6 8h1M6 9h1" />
<path stroke="#eaeaea" d="M7 3h1M4 5h4M5 6h1M4 7h1M7 8h1M3 10h1M7 11h1M5 12h1M7 12h1M2 13h1M2 14h1" />
<path stroke="#eaebea" d="M8 3h1M8 5h1M2 7h1M5 8h1M8 8h1M7 10h1M5 11h1M2 12h1M5 13h1" />
<path stroke="#000001" d="M0 4h1M9 7h1M0 11h1M9 11h1M9 14h1M5 15h1M8 15h1" />
<path stroke="#dcdbdb" d="M2 4h1M2 9h1M6 12h1M1 13h1M8 13h1" />
<path stroke="#dcdadb" d="M3 4h1M2 11h1" />
<path stroke="#ebebeb" d="M5 4h1M8 4h1" />
<path stroke="#dddbda" d="M2 5h1" />
<path stroke="#c5c5c4" d="M1 6h1" />
<path stroke="#eaebeb" d="M2 6h1M4 6h1M3 8h1M4 10h2M3 11h1M3 12h1" />
<path stroke="#1a1718" d="M3 6h1" />
<path stroke="#1a1619" d="M8 6h1" />
<path stroke="#010101" d="M0 7h1" />
<path stroke="#eaeaeb" d="M7 7h1M2 8h1M3 9h3M6 11h1M7 13h1" />
<path stroke="#1b1718" d="M8 7h1" />
<path stroke="#abaaaa" d="M1 10h1" />
<path stroke="#dcdada" d="M2 10h1M1 12h1" />
<path stroke="#ebebea" d="M6 10h1M8 10h1" />
<path stroke="#aaaaaa" d="M1 11h1M8 14h1" />
<path stroke="#abaaab" d="M3 13h1" />
<path stroke="#000101" d="M6 15h1" />
</svg>