<svg xmlns="http://www.w3.org/2000/svg" viewBox="0 -0.5 15 19" shape-rendering="crispEdges">
<metadata>Made with Pixels to Svg https://codepen.io/shshaw/pen/XbxvNj</metadata>
<path stroke="#191919" d="M7 0h5M5 1h2M12 1h2M3 2h2M14 2h1M2 3h1M14 3h1M2 4h1M8 4h3M13 4h1M1 5h1M10 5h3M1 6h1M12 6h1M0 7h1M12 7h1M0 8h1M12 8h1M1 9h1M12 9h1M1 10h1M12 10h1M2 11h1M13 11h1M3 12h1M8 12h2M13 12h1M3 13h2M12 13h1M2 14h1M5 14h7M2 15h1M4 15h1M10 15h1M12 15h1M2 16h3M10 16h3M4 17h1M6 17h1M8 17h1M10 17h1M4 18h2M8 18h2" />
<path stroke="#d41d18" d="M7 1h5M5 2h3M3 3h3M10 3h1M3 4h2M11 4h1M2 5h2M2 6h1M1 7h2M1 8h2M2 9h1" />
<path stroke="#ee1f19" d="M8 2h6M6 3h4M11 3h3M5 4h3M12 4h1M4 5h6M3 6h3M3 7h1M3 8h1" />
<path stroke="#0086e3" d="M6 6h6M4 7h2M4 8h1M4 9h1M2 10h1M4 10h1M3 14h2M3 15h1M5 15h5" />
<path stroke="#0096ff" d="M6 7h6M5 8h7M3 9h1M5 9h1M8 9h2M5 10h7M5 11h2M11 11h1M11 15h1" />
<path stroke="#ffffff" d="M6 9h1M10 9h1M7 11h4M12 11h1M5 12h3M10 12h3M6 13h6M7 16h3M9 17h1" />
<path stroke="#1a1618" d="M7 9h1M11 9h1" />
<path stroke="#e8e8e8" d="M3 10h1M3 11h2M4 12h1M5 13h1M5 16h2M5 17h1" />
</svg>