<svg xmlns="http://www.w3.org/2000/svg" viewBox="0 -0.5 20 17" shape-rendering="crispEdges">
<metadata>Made with Pixels to Svg https://codepen.io/shshaw/pen/XbxvNj</metadata>
<path stroke="#000000" d="M6 0h9M5 1h1M15 1h1M4 2h1M8 2h7M16 2h1M3 3h1M7 3h1M17 3h1M3 4h1M6 4h1M15 4h1M17 4h1M3 5h1M6 5h1M15 5h1M17 5h1M3 6h1M6 6h1M15 6h1M17 6h1M3 7h1M6 7h1M15 7h1M17 7h1M3 8h1M6 8h1M15 8h1M17 8h1M0 9h4M6 9h1M15 9h1M17 9h3M0 10h1M3 10h4M15 10h3M19 10h1M0 11h1M6 11h9M19 11h1M0 12h1M5 12h2M13 12h2M19 12h1M0 13h1M2 13h1M4 13h1M6 13h1M13 13h1M15 13h1M17 13h1M19 13h1M1 14h1M3 14h1M5 14h2M13 14h2M16 14h1M18 14h1M6 15h1M9 15h3M13 15h1M6 16h3M11 16h3" />
<path stroke="#739bcc" d="M6 1h3M5 2h2M15 2h1M4 3h2M15 3h2M4 4h1M16 4h1M4 5h1M16 5h1M4 6h1M16 6h1M4 7h1M16 7h1M4 8h1M16 8h1M4 9h1M16 9h1" />
<path stroke="#8eadd3" d="M9 1h6M7 2h1M6 3h1M5 4h1M5 5h1M5 6h1M5 7h1M5 8h1M5 9h1" />
<path stroke="#3b345b" d="M8 3h7M7 4h2M7 5h1M7 6h1M7 7h1M7 8h1M7 9h1M7 10h2M4 12h1M17 12h1" />
<path stroke="#f8d0b8" d="M9 4h6M8 5h1M8 6h1M8 7h1M8 8h1M8 9h1M9 10h1M5 13h1M14 13h1" />
<path stroke="#1a1618" d="M9 5h2M13 6h2M10 7h1M14 7h1M11 9h2" />
<path stroke="#fbe5d7" d="M11 5h4M9 6h4M11 7h2M9 8h6M9 9h2M13 9h2M10 10h5" />
<path stroke="#fdfdfd" d="M9 7h1M13 7h1" />
<path stroke="#98a230" d="M1 10h2M18 10h1M1 11h1M4 11h2M15 11h1M18 11h1M2 12h2M9 12h3M15 12h2M3 13h1M8 13h1M10 13h1M16 13h1M8 14h1M11 14h2" />
<path stroke="#d41d18" d="M2 11h1M17 11h1M1 13h1M9 13h1M18 13h1" />
<path stroke="#e8e8e8" d="M3 11h1M16 11h1M7 12h2M12 12h1M7 13h1M12 13h1" />
<path stroke="#4d5d11" d="M1 12h1M18 12h1M7 14h1M9 14h2" />
<path stroke="#0096ff" d="M11 13h1" />
<path stroke="#ffffff" d="M7 15h2M12 15h1" />
</svg>