<svg xmlns="http://www.w3.org/2000/svg" viewBox="0 -0.5 15 19" shape-rendering="crispEdges">
<metadata>Made with Pixels to Svg https://codepen.io/shshaw/pen/XbxvNj</metadata>
<path stroke="#000000" d="M10 0h3M8 1h2M13 1h1M6 2h2M14 2h1M4 3h2M14 3h1M4 4h1M14 4h1M4 5h1M14 5h1M4 6h1M14 6h1M4 7h1M14 7h1M3 8h1M14 8h1M3 9h1M14 9h1M3 10h1M14 10h1M4 11h2M14 11h1M3 12h1M6 12h1M14 12h1M2 13h1M5 13h9M1 14h1M4 14h1M12 14h3M1 15h1M4 15h1M6 15h1M12 15h1M14 15h1M0 16h1M5 16h2M9 16h1M12 16h2M0 17h1M4 17h1M6 17h1M8 17h1M10 17h1M12 17h1M1 18h3M6 18h2M11 18h2" />
<path stroke="#1c181b" d="M10 1h3M8 2h6M6 3h3M12 3h2M13 4h1M13 5h1M13 6h1" />
<path stroke="#272326" d="M9 3h3M5 4h8M5 5h2M8 5h3M5 6h1M10 6h1M5 7h1M5 8h1" />
<path stroke="#f1b18b" d="M7 5h1M11 5h2M6 6h4M6 7h2M4 8h1M6 8h1M4 9h3M4 10h3M6 11h2M7 12h2" />
<path stroke="#f8d0b8" d="M11 6h2M8 7h6M7 8h7M7 9h1M9 9h4M7 10h1M9 10h4M8 11h6M9 12h5M5 15h1M13 15h1" />
<path stroke="#1a1618" d="M8 9h1M13 9h1M8 10h1M13 10h1" />
<path stroke="#85110e" d="M4 12h2M3 13h1M2 14h1M9 14h1M2 15h1M1 16h1M1 17h1" />
<path stroke="#b21713" d="M4 13h1M3 14h1M3 15h1M2 16h3M2 17h2M7 17h1M11 17h1" />
<path stroke="#0c86d4" d="M5 14h3M7 15h2" />
<path stroke="#c28e38" d="M8 14h1M7 16h2" />
<path stroke="#fcc841" d="M10 14h1M9 15h1M10 16h2" />
<path stroke="#0691ea" d="M11 14h1M10 15h2" />
</svg>