<svg xmlns="http://www.w3.org/2000/svg" viewBox="0 -0.5 17 17" shape-rendering="crispEdges">
<metadata>Made with Pixels to Svg https://codepen.io/shshaw/pen/XbxvNj</metadata>
<path stroke="#000000" d="M6 0h9M5 1h1M15 1h1M2 2h1M4 2h1M16 2h1M1 3h1M3 3h1M7 3h2M13 3h1M16 3h1M1 4h1M6 4h1M9 4h1M12 4h1M14 4h1M16 4h1M2 5h1M6 5h1M10 5h2M14 5h1M16 5h1M2 6h1M6 6h1M14 6h1M16 6h1M3 7h1M5 7h1M14 7h1M16 7h1M4 8h1M14 8h1M16 8h1M3 9h1M5 9h1M14 9h1M16 9h1M2 10h1M6 10h1M13 10h1M15 10h1M2 11h1M5 11h1M7 11h8M1 12h1M4 12h1M9 12h1M13 12h1M1 13h1M4 13h1M14 13h1M0 14h1M5 14h1M9 14h1M13 14h2M0 15h1M4 15h1M6 15h1M8 15h1M10 15h1M12 15h1M1 16h3M6 16h2M10 16h2" />
<path stroke="#e2a502" d="M6 1h6M5 2h4M14 2h2M5 3h2M12 3h1M15 3h1M11 4h1M5 6h1M15 6h1M15 7h1" />
<path stroke="#ffba00" d="M12 1h3M9 2h5M9 3h3M14 3h1M10 4h1M15 4h1M15 5h1M15 8h1M4 9h1M15 9h1M3 10h1M14 10h1M3 11h1M2 12h2M2 13h1M1 14h2" />
<path stroke="#e2b397" d="M2 3h1M2 4h1M7 4h2M13 4h1M3 5h1M7 5h1M9 5h1M12 5h1M3 6h1M7 6h1M4 7h1M7 7h1" />
<path stroke="#51601c" d="M4 3h1M4 4h1M5 5h1M7 15h1" />
<path stroke="#f8d0b8" d="M3 4h1M4 5h1M8 5h1M13 5h1M4 6h1M8 6h6M10 7h2M5 13h1M13 13h1" />
<path stroke="#98a230" d="M5 4h1M6 8h1M7 9h7M9 10h4M6 11h1M7 12h1M11 12h2M7 13h1M11 13h1" />
<path stroke="#788027" d="M6 7h1M5 8h1M7 8h7M6 9h1M7 10h2M5 12h2M6 13h1M12 13h1M6 14h2M11 14h2M11 15h1" />
<path stroke="#54a4b5" d="M8 7h1M12 7h1" />
<path stroke="#329db1" d="M9 7h1M13 7h1" />
<path stroke="#ca9300" d="M4 10h2M4 11h1M8 12h1M10 12h1M3 13h1M8 13h1M10 13h1M3 14h2M8 14h1M10 14h1M1 15h3" />
<path stroke="#232222" d="M9 13h1" />
</svg>