<svg xmlns="http://www.w3.org/2000/svg" viewBox="0 -0.5 11 16" shape-rendering="crispEdges">
<metadata>Made with Pixels to Svg https://codepen.io/shshaw/pen/XbxvNj</metadata>
<path stroke="#000000" d="M3 0h6M2 1h1M9 1h1M1 2h1M10 2h1M1 3h1M10 3h1M1 4h1M3 4h1M10 4h1M1 5h1M3 5h2M8 5h1M10 5h1M0 6h1M5 6h1M10 6h1M0 7h1M5 7h1M10 7h1M1 8h1M10 8h1M2 9h1M9 9h1M1 10h1M3 10h6M0 11h1M8 11h2M0 12h1M2 12h1M8 12h1M10 12h1M0 13h3M8 13h3M2 14h1M5 14h1M8 14h1M2 15h3M6 15h2" />
<path stroke="#51601c" d="M3 1h3M2 2h2M2 3h2M2 4h1M2 5h1M2 6h1M1 7h1M4 12h3M5 13h1" />
<path stroke="#657b17" d="M6 1h3M4 2h6M6 3h2M9 3h1M1 6h1" />
<path stroke="#f4f4f4" d="M4 3h2M4 4h1M3 6h1M2 7h2M2 8h1M3 9h1" />
<path stroke="#ffffff" d="M8 3h1M5 4h5M5 5h3M9 5h1M6 6h3M6 7h3M4 8h6M8 9h1M1 12h1M9 12h1" />
<path stroke="#171a16" d="M4 6h1M9 6h1M4 7h1M9 7h1" />
<path stroke="#85110e" d="M3 8h1M4 9h4" />
<path stroke="#524388" d="M2 10h1M1 11h3M3 12h1M4 13h1M6 13h1M3 14h2M6 14h1" />
<path stroke="#6eaab8" d="M4 11h1M6 11h1" />
<path stroke="#329db1" d="M5 11h1" />
<path stroke="#6d5ab6" d="M7 11h1M7 12h1M3 13h1M7 13h1M7 14h1" />
</svg>