<svg xmlns="http://www.w3.org/2000/svg" viewBox="0 -0.5 16 24" shape-rendering="crispEdges">
<metadata>Made with Pixels to Svg https://codepen.io/shshaw/pen/XbxvNj</metadata>
<path stroke="#000000" d="M3 0h6M2 1h1M9 1h1M1 2h1M10 2h1M0 3h1M11 3h1M0 4h1M11 4h1M1 5h1M12 5h1M1 6h1M13 6h1M2 7h1M14 7h1M3 8h1M14 8h1M3 9h1M15 9h1M4 10h1M15 10h1M4 11h1M14 11h1M5 12h1M14 12h1M5 13h1M14 13h1M4 14h1M14 14h1M4 15h1M14 15h1M5 16h1M14 16h1M6 17h1M13 17h1M5 18h1M7 18h6M4 19h1M12 19h2M4 20h1M6 20h1M12 20h1M14 20h1M4 21h3M12 21h3M6 22h1M12 22h1M6 23h2M10 23h2" />
<path stroke="#0f609f" d="M3 1h4M2 2h3M1 3h3M1 4h2M2 5h1M2 6h2M3 7h2M4 8h1M4 9h2M5 10h1M5 11h2M6 12h1" />
<path stroke="#0b7cc2" d="M7 1h2M5 2h5M4 3h7M3 4h8M3 5h9M4 6h9M5 7h9M5 8h9M6 9h2M9 9h1M11 9h1M13 9h2M6 10h1M14 10h1" />
<path stroke="#ddaa00" d="M8 9h1M7 10h1M7 11h1M7 12h1M6 13h3M6 14h1M5 15h2M6 16h3M7 17h3M6 18h1M5 19h3M5 20h1" />
<path stroke="#ffd300" d="M10 9h1M12 9h1M9 10h5M8 11h5M8 12h3M9 13h5M9 14h3M9 15h3M9 16h5M10 17h3M13 20h1" />
<path stroke="#ffd305" d="M8 10h1M13 11h1M11 12h3M5 14h1" />
<path stroke="#f9f7f7" d="M7 14h1M12 14h1M7 15h1M12 15h1" />
<path stroke="#1a1618" d="M8 14h1M13 14h1M8 15h1M13 15h1" />
<path stroke="#f05b31" d="M8 19h1M10 19h1" />
<path stroke="#f7a27f" d="M9 19h1M11 19h1" />
<path stroke="#d4e39e" d="M7 20h5M7 21h5M7 22h5" />
</svg>