<svg xmlns="http://www.w3.org/2000/svg" viewBox="0 -0.5 13 18" shape-rendering="crispEdges">
<metadata>Made with Pixels to Svg https://codepen.io/shshaw/pen/XbxvNj</metadata>
<path stroke="#000000" d="M4 0h1M8 0h1M1 1h1M3 1h1M5 1h1M7 1h1M9 1h1M0 2h1M2 2h1M6 2h1M9 2h2M0 3h1M10 3h3M1 4h1M12 4h1M0 5h1M11 5h1M0 6h1M10 6h1M1 7h1M10 7h1M0 8h1M10 8h1M0 9h1M10 9h1M1 10h1M10 10h1M2 11h1M9 11h1M1 12h1M3 12h6M0 13h1M8 13h2M0 14h1M2 14h1M8 14h1M10 14h1M0 15h3M8 15h3M2 16h1M4 16h1M6 16h1M8 16h1M2 17h2M6 17h2" />
<path stroke="#ddaa00" d="M4 1h1M1 2h1M3 2h2M1 3h4M2 4h2M1 5h3M1 6h3M2 7h3M2 8h1M1 9h2M2 10h3M3 11h3M2 12h1M1 13h3M1 14h1" />
<path stroke="#ffd300" d="M8 1h1M7 2h2M6 3h4M5 4h7M4 5h5M10 5h1M4 6h3M5 7h5M5 8h3M5 9h3M5 10h5M6 11h3M9 14h1M3 16h1M7 16h1" />
<path stroke="#ffd305" d="M5 2h1M5 3h1M4 4h1M9 5h1M7 6h3M1 8h1" />
<path stroke="#f9f7f7" d="M3 8h1M8 8h1M3 9h1M8 9h1" />
<path stroke="#1a1618" d="M4 8h1M9 8h1M4 9h1M9 9h1" />
<path stroke="#ffffff" d="M4 13h1M6 13h1" />
<path stroke="#f1f0f0" d="M5 13h1M7 13h1" />
<path stroke="#e05829" d="M3 14h2M3 15h2" />
<path stroke="#f66239" d="M5 14h3M5 15h3" />
</svg>