<svg xmlns="http://www.w3.org/2000/svg" viewBox="0 -0.5 11 20" shape-rendering="crispEdges">
<metadata>Made with Pixels to Svg https://codepen.io/shshaw/pen/XbxvNj</metadata>
<path stroke="#000000" d="M5 0h1M3 1h2M6 1h1M2 2h1M4 2h4M2 3h2M8 3h2M1 4h1M10 4h1M1 5h1M10 5h1M1 6h1M10 6h1M1 7h1M10 7h1M1 8h1M10 8h1M1 9h1M10 9h1M0 10h1M10 10h1M0 11h1M10 11h1M1 12h1M10 12h1M2 13h1M9 13h1M1 14h1M3 14h6M0 15h1M8 15h2M0 16h1M2 16h1M8 16h1M10 16h1M0 17h3M8 17h3M2 18h1M4 18h1M6 18h1M8 18h1M2 19h2M6 19h2" />
<path stroke="#ddaa00" d="M4 3h4M2 4h3M2 5h2M2 6h2M2 7h2M2 8h2M2 9h3M2 10h1M1 11h2M2 12h3M3 13h2" />
<path stroke="#ffd300" d="M5 4h5M4 5h6M4 6h6M4 7h6M4 8h6M5 9h5M1 10h1M5 10h3M5 11h3M8 12h2M8 13h1M1 16h1M9 16h1" />
<path stroke="#f9f7f7" d="M3 10h1M8 10h1M3 11h2M8 11h2" />
<path stroke="#1a1618" d="M4 10h1M9 10h1" />
<path stroke="#d0ad69" d="M5 12h3M6 13h2" />
<path stroke="#926e3d" d="M5 13h1" />
<path stroke="#daebf1" d="M2 14h1M1 15h5" />
<path stroke="#ffffff" d="M6 15h2M3 16h5" />
<path stroke="#469ffc" d="M3 17h2M3 18h1" />
<path stroke="#69c9fd" d="M5 17h3M7 18h1" />
</svg>