<svg xmlns="http://www.w3.org/2000/svg" viewBox="0 -0.5 11 17" shape-rendering="crispEdges">
<metadata>Made with Pixels to Svg https://codepen.io/shshaw/pen/XbxvNj</metadata>
<path stroke="#000000" d="M2 0h1M4 0h1M6 0h1M8 0h1M1 1h1M3 1h1M5 1h1M7 1h1M9 1h1M1 2h1M10 2h1M1 3h1M10 3h1M1 4h1M10 4h1M1 5h1M10 5h1M1 6h1M10 6h1M0 7h1M10 7h1M0 8h1M10 8h1M1 9h1M10 9h1M2 10h1M9 10h1M1 11h1M3 11h6M0 12h1M8 12h2M0 13h1M2 13h1M8 13h1M10 13h1M0 14h3M8 14h3M2 15h1M4 15h1M6 15h1M8 15h1M2 16h2M6 16h2" />
<path stroke="#ddaa00" d="M2 1h1M4 1h1M6 1h1M2 2h5M2 3h3M2 4h2M2 5h2M2 6h3M2 7h1M1 8h2M2 9h3M3 10h3" />
<path stroke="#ffd300" d="M8 1h1M7 2h3M5 3h5M4 4h6M4 5h6M5 6h5M1 7h1M5 7h3M5 8h3M5 9h5M6 10h3M1 13h1M9 13h1" />
<path stroke="#f9f7f7" d="M3 7h2M8 7h2M3 8h1M8 8h1" />
<path stroke="#1a1618" d="M4 8h1M9 8h1" />
<path stroke="#ff3b00" d="M2 11h1M1 12h5" />
<path stroke="#ff4f00" d="M6 12h2M3 13h5" />
<path stroke="#17bbe2" d="M3 14h2M3 15h1" />
<path stroke="#00ceff" d="M5 14h3M7 15h1" />
</svg>