<svg xmlns="http://www.w3.org/2000/svg" viewBox="0 -0.5 12 18" shape-rendering="crispEdges">
<metadata>Made with Pixels to Svg https://codepen.io/shshaw/pen/XbxvNj</metadata>
<path stroke="#000000" d="M4 0h4M2 1h2M8 1h2M1 2h1M10 2h1M1 3h1M10 3h1M1 4h1M10 4h1M0 5h1M11 5h1M1 6h1M10 6h1M1 7h1M10 7h1M0 8h1M10 8h1M0 9h1M4 9h1M10 9h1M1 10h1M10 10h1M2 11h1M9 11h1M1 12h1M3 12h6M0 13h1M8 13h2M0 14h1M2 14h1M8 14h1M10 14h1M0 15h3M8 15h3M2 16h1M4 16h1M6 16h1M8 16h1M2 17h2M6 17h2" />
<path stroke="#feae35" d="M4 1h4M2 2h3M6 2h1M8 2h2M2 3h1M4 3h1M6 3h1M8 3h1M2 4h1M4 4h1M6 4h1M8 4h1M1 5h10" />
<path stroke="#f77522" d="M5 2h1M7 2h1M3 3h1M5 3h1M7 3h1M9 3h1M3 4h1M5 4h1M7 4h1M9 4h1M4 13h1M6 13h1M3 14h5M3 16h1M7 16h1" />
<path stroke="#d67642" d="M2 6h8M2 7h2M2 8h1M1 9h2M2 10h1M3 11h2M1 14h1" />
<path stroke="#e5a773" d="M4 7h6M1 8h1M3 8h1M5 8h4M3 9h1M5 9h4M3 10h7M5 11h4M9 14h1" />
<path stroke="#1a1618" d="M4 8h1M9 8h1M9 9h1" />
<path stroke="#5b6888" d="M2 12h1M1 13h3M5 13h1M7 13h1" />
<path stroke="#bd4b2d" d="M3 15h5" />
</svg>