<svg xmlns="http://www.w3.org/2000/svg" viewBox="0 -0.5 16 16" shape-rendering="crispEdges">
<metadata>Made with Pixels to Svg https://codepen.io/shshaw/pen/XbxvNj</metadata>
<path stroke="#000000" d="M6 0h6M5 1h1M12 1h1M4 2h1M13 2h1M4 3h1M13 3h1M4 4h1M13 4h1M4 5h1M13 5h1M2 6h1M4 6h1M13 6h2M1 7h1M3 7h2M13 7h1M15 7h1M1 8h1M4 8h1M9 8h3M13 8h1M15 8h1M2 9h1M5 9h1M8 9h1M12 9h1M14 9h1M1 10h1M4 10h1M6 10h6M13 10h1M0 11h1M3 11h1M12 11h1M14 11h1M0 12h1M3 12h1M5 12h1M13 12h1M15 12h1M0 13h1M3 13h3M11 13h3M15 13h1M0 14h1M4 14h2M7 14h1M9 14h1M11 14h1M15 14h1M1 15h3M5 15h2M9 15h2M13 15h2" />
<path stroke="#292929" d="M6 1h6M5 2h8M5 3h4M10 3h1M12 3h1M7 4h1" />
<path stroke="#e7c1aa" d="M9 3h1M11 3h1M8 4h1M7 5h1M7 6h1M5 7h2M5 8h2M6 9h1" />
<path stroke="#777777" d="M5 4h2M5 5h2M6 6h1" />
<path stroke="#f8d0b8" d="M9 4h4M8 5h5M5 6h1M10 6h1M7 7h6M7 8h2M12 8h1M7 9h1M9 9h3M4 12h1M12 12h1" />
<path stroke="#fdfdfd" d="M8 6h1M11 6h1" />
<path stroke="#191919" d="M9 6h1M12 6h1" />
<path stroke="#ee1f19" d="M2 7h1M14 7h1M3 8h1M4 9h1M2 10h1M12 10h1M13 11h1M14 12h1M1 13h1M1 14h2M12 14h1M12 15h1" />
<path stroke="#bd1e1a" d="M2 8h1M14 8h1M3 9h1M13 9h1M3 10h1M1 11h2M2 12h1M14 13h1M3 14h1M8 14h1M13 14h2M4 15h1M7 15h2M11 15h1" />
<path stroke="#21329b" d="M5 10h1M5 11h2M10 11h1M6 12h1M10 12h2M6 13h1M10 13h1" />
<path stroke="#6976c6" d="M4 11h1M11 11h1M7 13h1M9 13h1M6 14h1M10 14h1" />
<path stroke="#e3e3e3" d="M7 11h3" />
<path stroke="#d3211c" d="M1 12h1M2 13h1" />
<path stroke="#f3f2f2" d="M7 12h3" />
<path stroke="#fcc841" d="M8 13h1" />
</svg>