<svg xmlns="http://www.w3.org/2000/svg" viewBox="0 -0.5 15 17" shape-rendering="crispEdges">
<metadata>Made with Pixels to Svg https://codepen.io/shshaw/pen/XbxvNj</metadata>
<path stroke="#000000" d="M5 0h2M11 0h2M4 1h1M7 1h4M13 1h1M3 2h1M14 2h1M2 3h1M14 3h1M2 4h1M13 4h1M2 5h1M13 5h1M2 6h1M13 6h1M2 7h1M7 7h1M11 7h1M13 7h1M1 8h2M13 8h1M0 9h1M3 9h1M12 9h1M0 10h1M4 10h1M11 10h1M0 11h1M3 11h1M5 11h6M0 12h1M2 12h1M10 12h2M0 13h1M2 13h1M4 13h1M10 13h1M12 13h1M0 14h1M3 14h2M7 14h1M10 14h3M1 15h2M4 15h1M6 15h1M8 15h1M10 15h1M4 16h2M8 16h2" />
<path stroke="#e9e9e9" d="M5 1h2M4 2h1M7 2h1M3 3h1M3 4h1M3 5h1M3 6h1M3 7h1M3 8h1" />
<path stroke="#f2f2f2" d="M11 1h1M5 2h1M8 2h3M4 3h1" />
<path stroke="#ffffff" d="M12 1h1M6 2h1M11 2h3M5 3h9M4 4h2M11 4h2M4 5h1M12 5h1M4 6h1M12 6h1M4 7h1M6 7h1M10 7h1M12 7h1M4 8h1M12 8h1M4 9h2M11 9h1M5 10h6" />
<path stroke="#f8b994" d="M6 4h5M5 5h2M5 6h1M5 7h1M5 8h1" />
<path stroke="#f8d0b8" d="M7 5h5M6 6h6M8 7h2M6 8h6M6 9h5M3 13h1M11 13h1M5 15h1M9 15h1" />
<path stroke="#626828" d="M1 9h2M1 10h3M1 11h1M1 12h1" />
<path stroke="#7c842f" d="M2 11h1M1 13h1M1 14h2" />
<path stroke="#0561de" d="M4 11h1M3 12h3M9 12h1M5 13h1M5 14h2" />
<path stroke="#06b5e1" d="M6 12h3M6 13h1" />
<path stroke="#00ccff" d="M7 13h2" />
<path stroke="#006cff" d="M9 13h1M8 14h2" />
<path stroke="#33354b" d="M3 15h1" />
</svg>