<svg xmlns="http://www.w3.org/2000/svg" viewBox="0 -0.5 12 17" shape-rendering="crispEdges">
<metadata>Made with Pixels to Svg https://codepen.io/shshaw/pen/XbxvNj</metadata>
<path stroke="#000000" d="M3 0h6M2 1h1M9 1h1M1 2h1M10 2h1M1 3h1M10 3h1M0 4h1M11 4h1M1 5h1M10 5h1M1 6h1M10 6h1M0 7h1M10 7h1M0 8h1M10 8h1M1 9h1M10 9h1M2 10h1M9 10h1M1 11h1M3 11h6M0 12h1M8 12h2M0 13h1M2 13h1M8 13h1M10 13h1M0 14h3M8 14h3M2 15h1M4 15h1M6 15h1M8 15h1M2 16h2M6 16h2" />
<path stroke="#a32634" d="M3 1h2M2 2h2M2 3h8M2 4h1M4 4h1M6 4h1M8 4h1M10 4h1" />
<path stroke="#e53b44" d="M5 1h4M4 2h6M1 4h1M3 4h1M5 4h1M7 4h1M9 4h1M6 10h2" />
<path stroke="#e8b796" d="M2 5h6M2 6h1" />
<path stroke="#d77643" d="M8 5h2" />
<path stroke="#ead5aa" d="M3 6h4M2 7h2M2 8h1" />
<path stroke="#e4a673" d="M7 6h3M1 7h1M5 7h4M1 8h1M3 8h1M5 8h4M2 9h8M3 10h3M8 10h1M9 13h1" />
<path stroke="#5a6988" d="M4 7h1M9 7h1M4 8h1M9 8h1" />
<path stroke="#e26644" d="M2 11h1M1 12h4M7 12h1M1 13h1M3 13h2" />
<path stroke="#ffffff" d="M5 12h2" />
<path stroke="#ff7953" d="M5 13h3" />
<path stroke="#384e80" d="M3 14h2M3 15h1" />
<path stroke="#506698" d="M5 14h3M7 15h1" />
</svg>