<svg xmlns="http://www.w3.org/2000/svg" viewBox="0 -0.5 11 16" shape-rendering="crispEdges">
<metadata>Made with Pixels to Svg https://codepen.io/shshaw/pen/XbxvNj</metadata>
<path stroke="#000000" d="M2 0h8M1 1h1M10 1h1M1 2h1M10 2h1M1 3h1M10 3h1M1 4h1M10 4h1M1 5h1M10 5h1M0 6h1M10 6h1M0 7h1M10 7h1M1 8h1M10 8h1M1 9h2M9 9h1M0 10h1M3 10h6M0 11h1M8 11h3M0 12h1M2 12h1M8 12h1M10 12h1M0 13h3M8 13h3M2 14h1M4 14h1M6 14h1M8 14h1M2 15h2M6 15h2" />
<path stroke="#1f100b" d="M2 1h3M2 2h2M2 3h2M2 4h2M2 5h1" />
<path stroke="#2f1f0f" d="M5 1h5M4 2h6" />
<path stroke="#996a57" d="M4 3h6M4 4h1M3 5h1M2 6h2M1 7h3M2 8h3M3 9h3" />
<path stroke="#b5826c" d="M5 4h5M4 5h6M1 6h1M5 6h4M5 7h4M5 8h5M6 9h3M9 12h1" />
<path stroke="#1a1618" d="M4 6h1M9 6h1M4 7h1M9 7h1" />
<path stroke="#009999" d="M1 10h2M1 11h7M3 12h2" />
<path stroke="#d38766" d="M1 12h1" />
<path stroke="#00afaf" d="M5 12h3" />
<path stroke="#3a3189" d="M3 13h2M3 14h1" />
<path stroke="#463aa5" d="M5 13h3M7 14h1" />
</svg>