<svg xmlns="http://www.w3.org/2000/svg" viewBox="0 -0.5 14 17" shape-rendering="crispEdges">
<metadata>Made with Pixels to Svg https://codepen.io/shshaw/pen/XbxvNj</metadata>
<path stroke="#000000" d="M3 0h4M8 0h3M2 1h1M7 1h1M11 1h1M2 2h1M12 2h1M1 3h1M12 3h1M0 4h1M13 4h1M1 5h2M11 5h2M2 6h1M11 6h1M1 7h1M11 7h1M1 8h1M11 8h1M2 9h1M11 9h1M3 10h1M10 10h1M2 11h1M4 11h6M1 12h1M9 12h2M1 13h1M3 13h1M9 13h1M11 13h1M1 14h3M9 14h3M3 15h1M5 15h1M7 15h1M9 15h1M3 16h2M7 16h2" />
<path stroke="#34424c" d="M3 1h2M9 1h2M8 2h4M2 3h1M9 3h3M11 4h2" />
<path stroke="#1b1f26" d="M5 1h2M8 1h1M3 2h5M3 3h4M1 4h4" />
<path stroke="#d38766" d="M7 3h2M5 4h2M3 5h2M3 6h3M3 7h2M2 8h3M3 9h3M4 10h3" />
<path stroke="#f8d0b8" d="M7 4h4M5 5h6M6 6h5M2 7h1M6 7h4M6 8h4M6 9h5M7 10h3M10 13h1" />
<path stroke="#1a1618" d="M5 7h1M10 7h1M5 8h1M10 8h1" />
<path stroke="#004441" d="M3 11h1M2 12h1M4 12h2M8 12h1M2 13h1M4 13h1M4 14h1M4 15h1" />
<path stroke="#c6c7c4" d="M3 12h1M6 12h2M6 13h1" />
<path stroke="#009284" d="M5 13h1M8 13h1M5 14h4M8 15h1" />
<path stroke="#e7e8e3" d="M7 13h1" />
</svg>