<svg xmlns="http://www.w3.org/2000/svg" viewBox="0 -0.5 16 16" shape-rendering="crispEdges">
<metadata>Made with Pixels to Svg https://codepen.io/shshaw/pen/XbxvNj</metadata>
<path stroke="#000000" d="M1 0h2M5 0h6M13 0h2M0 1h1M3 1h2M11 1h2M15 1h1M0 2h1M15 2h1M0 3h1M15 3h1M0 4h1M3 4h1M12 4h1M15 4h1M0 5h1M3 5h1M12 5h1M15 5h1M1 6h2M12 6h3M2 7h1M12 7h1M3 8h1M12 8h1M4 9h1M11 9h1M3 10h8M2 11h1M10 11h2M2 12h1M4 12h1M10 12h1M12 12h1M2 13h3M10 13h3M4 14h1M6 14h1M8 14h1M10 14h1M4 15h2M8 15h2" />
<path stroke="#e8352f" d="M1 1h2M1 2h2M1 3h2M1 4h2M1 5h2" />
<path stroke="#eb3031" d="M5 1h2M4 2h2M4 3h2M4 4h1M4 5h1" />
<path stroke="#ef5253" d="M7 1h4M13 1h2M6 2h2M9 2h3M13 2h2M6 3h1M10 3h2M13 3h2M13 4h2M13 5h2" />
<path stroke="#ffb356" d="M3 2h1M12 2h1M3 3h1M12 3h1" />
<path stroke="#e3ae7a" d="M8 2h1M7 3h1M5 4h2M5 5h2M4 6h2M3 7h3M4 8h3M5 9h3M3 11h3M7 11h1M3 12h1" />
<path stroke="#efc08c" d="M8 3h2M7 4h5M7 5h5M3 6h1M7 6h4M7 7h4M7 8h5M8 9h3M8 11h1M11 12h1M5 14h1M9 14h1" />
<path stroke="#1a1618" d="M6 6h1M11 6h1M6 7h1M11 7h1" />
<path stroke="#d8d4d1" d="M6 11h1M5 12h2" />
<path stroke="#fffff7" d="M9 11h1M7 12h3" />
<path stroke="#304855" d="M5 13h5" />
</svg>