<svg xmlns="http://www.w3.org/2000/svg" viewBox="0 -0.5 18 18" shape-rendering="crispEdges">
<metadata>Made with Pixels to Svg https://codepen.io/shshaw/pen/XbxvNj</metadata>
<path stroke="#000000" d="M4 0h3M13 0h2M3 1h1M7 1h1M12 1h1M15 1h1M2 2h1M6 2h1M8 2h5M14 2h1M16 2h1M2 3h1M5 3h1M16 3h1M2 4h1M5 4h1M14 4h1M16 4h1M2 5h1M5 5h1M14 5h1M16 5h1M2 6h1M5 6h1M14 6h1M16 6h1M2 7h1M5 7h1M14 7h1M16 7h1M1 8h1M4 8h1M14 8h1M16 8h1M1 9h1M4 9h1M14 9h1M17 9h1M0 10h1M4 10h2M14 10h1M17 10h1M1 11h1M3 11h1M6 11h1M13 11h1M15 11h1M17 11h1M2 12h1M5 12h1M7 12h6M16 12h2M4 13h1M12 13h2M4 14h1M6 14h1M12 14h1M14 14h1M4 15h3M12 15h3M6 16h1M8 16h1M10 16h1M12 16h1M6 17h2M10 17h2" />
<path stroke="#fbab3e" d="M4 1h3M3 2h2M3 3h1M8 3h2M3 4h1M6 4h2M3 5h1M6 5h1M3 6h1M2 8h1M2 9h1M1 10h1" />
<path stroke="#fbc747" d="M13 1h2M5 2h1M15 2h1M4 3h1M10 3h3M15 3h1M4 4h1M8 4h2M11 4h3M15 4h1M4 5h1M7 5h1M13 5h1M15 5h1M4 6h1M15 6h1M3 7h2M15 7h1M3 8h1M15 8h1M3 9h1M15 9h2M2 10h2M15 10h2M2 11h1M16 11h1" />
<path stroke="#b81151" d="M7 2h1M13 2h1M6 3h2M13 3h2" />
<path stroke="#e6a872" d="M10 4h1M9 5h4M8 6h6M9 7h5M5 8h1M9 8h4M9 9h4M9 10h5M10 11h3M5 14h1M13 14h1M7 16h1M11 16h1" />
<path stroke="#d38766" d="M8 5h1M6 6h2M6 7h3M6 8h2M5 9h3M6 10h1M8 10h1M7 11h3" />
<path stroke="#1a1618" d="M8 8h1M13 8h1M8 9h1M13 9h1" />
<path stroke="#fbb4d0" d="M7 10h1" />
<path stroke="#ffaa3c" d="M6 12h1M5 13h7M7 14h2" />
<path stroke="#fbc847" d="M9 14h3" />
<path stroke="#c55520" d="M7 15h2" />
<path stroke="#f7812f" d="M9 15h3" />
</svg>