<svg xmlns="http://www.w3.org/2000/svg" viewBox="0 -0.5 16 21" shape-rendering="crispEdges">
<metadata>Made with Pixels to Svg https://codepen.io/shshaw/pen/XbxvNj</metadata>
<path stroke="#000000" d="M1 0h14M0 1h1M15 1h1M0 2h1M15 2h1M1 3h2M13 3h2M3 4h1M12 4h1M3 5h1M12 5h1M3 6h1M12 6h1M3 7h1M12 7h1M3 8h1M12 8h1M3 9h1M12 9h1M3 10h1M12 10h1M2 11h1M12 11h1M2 12h1M6 12h1M12 12h1M3 13h1M12 13h1M4 14h1M11 14h1M3 15h1M5 15h6M2 16h1M10 16h2M2 17h1M4 17h1M10 17h1M12 17h1M2 18h3M10 18h3M4 19h1M10 19h1M4 20h2M8 20h2" />
<path stroke="#cfcecc" d="M1 1h5M1 2h2M14 2h1M3 3h1M8 3h1M4 4h1M6 4h1M8 4h1M10 4h1M4 5h1M6 5h1M8 5h1M10 5h1M4 6h1M6 6h1M8 6h1M10 6h1M4 7h1M6 7h1M8 7h1M10 7h1" />
<path stroke="#f2f1ed" d="M6 1h9M3 2h11M4 3h4M9 3h4M5 4h1M7 4h1M9 4h1M11 4h1M5 5h1M7 5h1M9 5h1M11 5h1M5 6h1M7 6h1M9 6h1M11 6h1M5 7h1M7 7h1M9 7h1M11 7h1" />
<path stroke="#e48f4e" d="M4 8h8M4 9h2M4 10h3M4 11h2M3 12h3M4 13h3M5 14h3M3 17h1" />
<path stroke="#fbbc89" d="M6 9h6M7 10h5M3 11h1M7 11h4M7 12h4M7 13h5M8 14h3M11 17h1" />
<path stroke="#1a1618" d="M6 11h1M11 11h1M11 12h1" />
<path stroke="#d1cdcd" d="M4 15h1M3 16h3M7 16h1M9 16h1" />
<path stroke="#fef3ed" d="M6 16h1M8 16h1M5 17h5M5 18h2M9 18h1M5 19h5" />
<path stroke="#b6aeab" d="M7 18h2" />
</svg>