<svg xmlns="http://www.w3.org/2000/svg" viewBox="0 -0.5 12 17" shape-rendering="crispEdges">
<metadata>Made with Pixels to Svg https://codepen.io/shshaw/pen/XbxvNj</metadata>
<path stroke="#000000" d="M3 0h6M2 1h1M9 1h1M1 2h1M10 2h1M0 3h1M11 3h1M0 4h1M11 4h1M0 5h1M11 5h1M0 6h1M11 6h1M0 7h1M11 7h1M0 8h1M11 8h1M1 9h1M10 9h1M2 10h1M9 10h1M1 11h1M3 11h6M0 12h1M8 12h2M0 13h1M2 13h1M8 13h1M10 13h1M0 14h3M8 14h3M2 15h1M4 15h1M6 15h1M8 15h1M2 16h2M6 16h2" />
<path stroke="#a2202d" d="M3 1h2M2 2h2M1 3h2M1 4h2M1 5h1M1 6h1M2 7h1M1 8h2M2 9h2M3 10h3M2 11h1M1 12h4M6 12h2M1 13h1M3 13h2M3 15h1" />
<path stroke="#c42132" d="M5 1h4M9 2h1M10 3h1M10 4h1M10 5h1M10 6h1M1 7h1M10 7h1M10 8h1M9 9h1M6 10h3M6 13h2M9 13h1M7 15h1" />
<path stroke="#1a1b1d" d="M4 2h5M3 3h7M3 4h2M9 4h1M2 5h3M6 5h2M9 5h1M2 6h3M6 6h2M9 6h1M3 7h2M9 7h1M3 8h7M4 9h5M5 12h1M5 13h1M3 14h5" />
<path stroke="#ffffff" d="M5 4h4M5 5h1M8 5h1M5 6h1M8 6h1M5 7h4" />
</svg>