<svg xmlns="http://www.w3.org/2000/svg" viewBox="0 -0.5 22 21" shape-rendering="crispEdges">
<metadata>Made with Pixels to Svg https://codepen.io/shshaw/pen/XbxvNj</metadata>
<path stroke="#000000" d="M2 0h3M1 1h1M5 1h1M0 2h1M6 2h1M0 3h1M3 3h1M6 3h1M0 4h1M2 4h1M4 4h1M7 4h1M1 5h1M5 5h1M7 5h7M5 6h1M7 6h1M14 6h1M6 7h1M12 7h2M15 7h1M6 8h1M11 8h1M15 8h1M6 9h1M9 9h2M15 9h1M6 10h1M8 10h1M16 10h1M5 11h1M16 11h1M20 11h2M5 12h1M16 12h1M19 12h1M21 12h1M6 13h1M16 13h1M18 13h1M20 13h1M7 14h1M15 14h1M17 14h1M19 14h1M6 15h1M8 15h7M16 15h1M18 15h1M5 16h1M13 16h3M17 16h1M5 17h1M7 17h1M13 17h1M16 17h1M18 17h1M5 18h3M13 18h3M17 18h2M7 19h1M9 19h1M11 19h1M13 19h1M7 20h2M11 20h2" />
<path stroke="#ff6a6c" d="M2 1h3M1 2h1M5 2h1" />
<path stroke="#ea0001" d="M2 2h3M1 3h2M5 3h1M6 4h1" />
<path stroke="#a00000" d="M4 3h1M1 4h1M5 4h1M6 5h1M6 6h1" />
<path stroke="#919191" d="M8 6h2M7 7h2M14 7h1M7 8h2M12 8h1M14 8h1M7 9h2M12 9h1M14 9h1M7 10h1M10 10h1M12 10h1M14 10h1M7 11h2M6 12h3M7 13h2M8 14h3M7 15h1M6 16h6M6 17h1M8 17h2M8 19h1" />
<path stroke="#b3b3b3" d="M10 6h2M9 7h3M9 8h2M13 8h1M11 9h1M13 9h1M9 10h1M11 10h1M13 10h1M6 11h1M15 12h1M15 13h1M11 14h4M10 17h3M14 17h1M12 19h1" />
<path stroke="#d3d1dc" d="M12 6h2M15 10h1M15 11h1M12 16h1" />
<path stroke="#1a1618" d="M9 11h1M14 11h1M9 12h1M14 12h1" />
<path stroke="#d89961" d="M10 11h4M9 13h1" />
<path stroke="#e7a871" d="M10 12h4M10 13h5" />
<path stroke="#f1f4f2" d="M20 12h1M19 13h1M18 14h1M17 15h1" />
<path stroke="#935c19" d="M15 15h1M17 17h1" />
<path stroke="#663d0f" d="M16 16h1M15 17h1" />
<path stroke="#423d43" d="M8 18h2M11 18h2" />
<path stroke="#fab30d" d="M10 18h1" />
</svg>