<svg xmlns="http://www.w3.org/2000/svg" viewBox="0 -0.5 16 19" shape-rendering="crispEdges">
<metadata>Made with Pixels to Svg https://codepen.io/shshaw/pen/XbxvNj</metadata>
<path stroke="#000000" d="M7 0h5M6 1h1M12 1h1M7 2h1M11 2h1M2 3h2M5 3h8M1 4h1M4 4h1M13 4h1M0 5h1M3 5h1M14 5h1M0 6h1M3 6h1M14 6h1M0 7h1M3 7h1M15 7h1M0 8h1M3 8h1M13 8h1M0 9h1M3 9h1M13 9h1M1 10h1M3 10h1M13 10h1M1 11h1M4 11h1M13 11h1M0 12h1M3 12h1M5 12h1M12 12h1M0 13h3M4 13h1M6 13h6M3 14h1M11 14h2M3 15h1M5 15h1M11 15h1M13 15h1M3 16h2M12 16h2M5 17h1M7 17h1M9 17h1M11 17h1M5 18h2M9 18h2" />
<path stroke="#dddcc5" d="M7 1h2M8 2h1M5 13h1M4 14h7M6 15h2" />
<path stroke="#fdfcdd" d="M9 1h3M10 2h1M8 15h3M5 16h7" />
<path stroke="#f40643" d="M9 2h1" />
<path stroke="#c38b36" d="M2 4h2M5 4h3M1 5h2M4 5h3M1 6h2M4 6h3M1 7h2M4 7h2M7 7h1M1 8h2M4 8h2M1 9h2M5 9h1M2 10h1M5 10h1M2 11h2M1 12h2" />
<path stroke="#e3a141" d="M8 4h5M7 5h7M7 6h7M8 7h7" />
<path stroke="#c69e85" d="M6 7h1M6 8h7M6 9h1M4 10h1M6 10h1M5 11h3M6 12h3M4 15h1M6 17h1" />
<path stroke="#e8ba9b" d="M4 9h1M8 9h4M8 10h4M8 11h5M9 12h3M12 15h1M10 17h1" />
<path stroke="#1a1618" d="M7 9h1M12 9h1M7 10h1M12 10h1" />
</svg>