<svg xmlns="http://www.w3.org/2000/svg" viewBox="0 -0.5 16 17" shape-rendering="crispEdges">
<metadata>Made with Pixels to Svg https://codepen.io/shshaw/pen/XbxvNj</metadata>
<path stroke="#000000" d="M7 0h4M5 1h2M11 1h2M4 2h1M13 2h1M4 3h1M8 3h6M3 4h1M7 4h1M14 4h1M3 5h1M6 5h1M15 5h1M1 6h3M6 6h1M15 6h1M0 7h1M3 7h1M7 7h1M14 7h1M0 8h1M3 8h1M8 8h6M0 9h1M4 9h1M13 9h1M0 10h1M5 10h1M12 10h1M0 11h1M4 11h1M6 11h6M0 12h1M3 12h1M11 12h2M0 13h1M3 13h1M5 13h1M11 13h1M13 13h1M1 14h1M4 14h2M11 14h3M2 15h2M5 15h1M7 15h3M11 15h1M5 16h2M9 16h2" />
<path stroke="#cdd5d8" d="M7 1h2M5 2h3M5 3h2M4 4h3M4 5h2M4 6h2M1 7h2M4 7h3M1 8h2M4 8h4M1 9h1M5 9h3M1 10h1M6 10h3M1 11h1M5 11h1M1 12h1M4 12h7M1 13h1M4 13h1M6 13h1M2 14h1M6 14h2M6 15h1" />
<path stroke="#fdfefe" d="M9 1h2M8 2h5M7 3h1M2 9h2M8 9h5M2 10h3M9 10h3M2 11h2M2 12h1M2 13h1M10 13h1M12 13h1M3 14h1M8 14h3M10 15h1" />
<path stroke="#393836" d="M8 4h1M10 4h4M7 5h1M9 5h6M7 6h8M8 7h6" />
<path stroke="#727375" d="M9 4h1M8 5h1" />
<path stroke="#00ff00" d="M7 13h1" />
<path stroke="#ff0000" d="M8 13h1" />
<path stroke="#0000ff" d="M9 13h1" />
</svg>