<svg xmlns="http://www.w3.org/2000/svg" viewBox="0 -0.5 16 18" shape-rendering="crispEdges">
<metadata>Made with Pixels to Svg https://codepen.io/shshaw/pen/XbxvNj</metadata>
<path stroke="#000000" d="M1 0h1M6 0h4M14 0h1M0 1h1M2 1h2M5 1h1M10 1h1M12 1h2M15 1h1M0 2h1M4 2h1M11 2h1M15 2h1M1 3h2M13 3h2M3 4h1M12 4h1M3 5h1M12 5h1M3 6h1M12 6h1M3 7h1M12 7h1M2 8h1M12 8h1M2 9h1M12 9h1M3 10h1M12 10h1M4 11h1M11 11h1M3 12h1M5 12h6M2 13h1M10 13h2M2 14h1M4 14h1M10 14h1M12 14h1M2 15h3M10 15h3M4 16h1M6 16h3M10 16h1M4 17h2M8 17h2" />
<path stroke="#f8fff8" d="M1 1h1M14 1h1M1 2h3M12 2h3M3 3h1M12 3h1" />
<path stroke="#7b5741" d="M6 1h4M5 2h6M4 12h1M5 13h3M8 14h1" />
<path stroke="#674a3c" d="M4 3h8M4 4h8M5 15h5M5 16h1M9 16h1" />
<path stroke="#f0a677" d="M4 5h8M4 6h2M4 7h3M4 8h2M3 9h3M4 10h3M5 11h3M3 13h2M8 13h2M3 14h1M5 14h2" />
<path stroke="#f2c58e" d="M6 6h6M7 7h5M3 8h1M7 8h4M7 9h4M7 10h5M8 11h3M7 14h1M9 14h1M11 14h1" />
<path stroke="#1a1618" d="M6 8h1M11 8h1M6 9h1M11 9h1" />
</svg>