<svg xmlns="http://www.w3.org/2000/svg" viewBox="0 -0.5 11 18" shape-rendering="crispEdges">
<metadata>Made with Pixels to Svg https://codepen.io/shshaw/pen/XbxvNj</metadata>
<path stroke="#000000" d="M3 0h1M8 0h1M2 1h1M4 1h1M7 1h1M9 1h1M2 2h1M4 2h4M9 2h1M2 3h1M9 3h1M1 4h1M10 4h1M1 5h1M10 5h1M1 6h1M10 6h1M1 7h1M10 7h1M0 8h1M10 8h1M0 9h1M10 9h1M1 10h1M10 10h1M2 11h1M9 11h1M1 12h1M3 12h6M0 13h1M8 13h2M0 14h1M2 14h1M8 14h1M10 14h1M0 15h3M5 15h1M8 15h3M2 16h1M4 16h1M6 16h1M8 16h1M2 17h2M6 17h2" />
<path stroke="#f0f1e9" d="M3 1h1M8 1h1" />
<path stroke="#e5e2dd" d="M3 2h1M8 2h1" />
<path stroke="#ba3610" d="M3 3h2M2 4h2M2 5h2M2 6h2M2 7h3M2 8h2M1 9h3M2 10h3M3 11h3M2 12h1M1 13h7M1 14h1M3 14h2M3 15h2M3 16h1" />
<path stroke="#e34e36" d="M5 3h4M4 4h6M4 5h6M4 6h6M5 7h5M1 8h1M5 8h4M5 9h4M5 10h5M6 11h3M5 14h3M9 14h1M6 15h2M7 16h1" />
<path stroke="#1a1618" d="M4 8h1M9 8h1M4 9h1M9 9h1" />
</svg>