<svg xmlns="http://www.w3.org/2000/svg" viewBox="0 -0.5 15 19" shape-rendering="crispEdges">
<metadata>Made with Pixels to Svg https://codepen.io/shshaw/pen/XbxvNj</metadata>
<path stroke="#000000" d="M3 0h6M1 1h2M9 1h2M0 2h1M11 2h1M0 3h1M2 3h2M12 3h1M1 4h1M4 4h1M13 4h1M4 5h1M13 5h1M3 6h1M14 6h1M4 7h1M13 7h1M4 8h1M13 8h1M3 9h1M13 9h1M3 10h1M13 10h1M4 11h1M13 11h1M5 12h1M13 12h1M4 13h1M6 13h1M13 13h1M3 14h1M12 14h1M3 15h1M5 15h1M11 15h1M13 15h1M3 16h2M11 16h3M2 17h1M11 17h1M3 18h8" />
<path stroke="#3f4f72" d="M3 1h5M1 2h3M1 3h1M4 6h10M5 13h1M4 14h5M6 15h2M5 16h1M3 17h2" />
<path stroke="#52658d" d="M8 1h1M4 2h7M4 3h8M8 15h3M6 16h5M5 17h6" />
<path stroke="#323b44" d="M5 4h4M11 4h2M5 5h4M11 5h2" />
<path stroke="#b0b0b0" d="M9 4h2M9 5h2" />
<path stroke="#b3bec4" d="M5 7h1M5 10h1M5 11h2M6 12h2M7 13h3M9 14h2" />
<path stroke="#f0b387" d="M6 7h7M5 8h3M5 9h2M4 10h1M6 10h1M7 11h1" />
<path stroke="#ffd6ac" d="M8 8h5M4 9h1M8 9h4M8 10h4M8 11h1M10 11h1M12 11h1M4 15h1M12 15h1" />
<path stroke="#1a1618" d="M7 9h1M12 9h1M7 10h1M12 10h1" />
<path stroke="#d5e1ed" d="M9 11h1M11 11h1M8 12h5M10 13h3M11 14h1" />
</svg>