<svg xmlns="http://www.w3.org/2000/svg" viewBox="0 -0.5 15 17" shape-rendering="crispEdges">
<metadata>Made with Pixels to Svg https://codepen.io/shshaw/pen/XbxvNj</metadata>
<path stroke="#000000" d="M1 0h2M0 1h1M3 1h1M6 1h7M0 2h1M3 2h1M5 2h1M13 2h1M1 3h2M4 3h1M14 3h1M4 4h1M14 4h1M5 5h1M14 5h1M5 6h1M14 6h1M4 7h1M14 7h1M4 8h1M14 8h1M5 9h1M14 9h1M6 10h1M13 10h1M5 11h1M7 11h6M4 12h1M12 12h2M4 13h1M6 13h1M12 13h1M14 13h1M4 14h3M12 14h3M6 15h1M10 15h1M12 15h1M6 16h2M10 16h2" />
<path stroke="#212121" d="M1 1h2M1 2h2M6 2h7M5 3h3M12 3h2M11 4h1M6 5h1M6 6h1" />
<path stroke="#3b3b3b" d="M8 3h4M5 4h3M10 4h1" />
<path stroke="#ddb68f" d="M8 4h2M7 5h2M7 6h2M6 7h2M5 8h4M6 9h3M7 10h3" />
<path stroke="#ffcc99" d="M12 4h2M9 5h5M9 6h5M10 7h2M9 8h5M9 9h5M10 10h3M10 12h1M13 13h1" />
<path stroke="#f8d0b8" d="M5 7h1" />
<path stroke="#f2f1f1" d="M8 7h1M12 7h1" />
<path stroke="#1a1618" d="M9 7h1M13 7h1" />
<path stroke="#eaeaea" d="M6 11h1M5 12h4M7 13h1M7 15h1" />
<path stroke="#9a9a9a" d="M9 12h1M11 12h1M5 13h1M10 13h1M7 14h5M8 15h1" />
<path stroke="#ffffff" d="M8 13h2M11 13h1M11 15h1" />
</svg>