<svg xmlns="http://www.w3.org/2000/svg" viewBox="0 -0.5 13 17" shape-rendering="crispEdges">
<metadata>Made with Pixels to Svg https://codepen.io/shshaw/pen/XbxvNj</metadata>
<path stroke="#000000" d="M10 0h2M3 1h7M12 1h1M2 2h1M11 2h1M1 3h1M10 3h1M1 4h1M10 4h1M1 5h1M10 5h1M1 6h1M10 6h1M0 7h1M10 7h1M0 8h1M10 8h1M1 9h1M10 9h1M2 10h1M10 10h1M1 11h1M3 11h1M9 11h1M0 12h1M8 12h2M0 13h1M2 13h1M8 13h1M10 13h1M0 14h3M8 14h3M2 15h1M4 15h1M6 15h1M8 15h1M2 16h2M6 16h2" />
<path stroke="#df0100" d="M10 1h2M3 2h8M2 3h8" />
<path stroke="#ef594a" d="M2 4h3" />
<path stroke="#f5b89c" d="M5 4h2M4 5h1M2 6h3M2 7h2M1 8h3M2 9h1M4 9h1M3 10h3M4 11h5" />
<path stroke="#ffc0a5" d="M7 4h3M5 5h5M5 6h5M5 7h4M5 8h4M5 9h1M9 9h1M7 10h1M9 10h1" />
<path stroke="#f47b66" d="M2 5h2" />
<path stroke="#f8d0b8" d="M1 7h1M9 13h1" />
<path stroke="#1a1618" d="M4 7h1M9 7h1M4 8h1M9 8h1" />
<path stroke="#ff9983" d="M3 9h1" />
<path stroke="#d40001" d="M6 9h3M6 10h1M8 10h1" />
<path stroke="#704036" d="M2 11h1M3 12h2M5 13h2M7 14h1" />
<path stroke="#e2ddda" d="M1 12h2M5 12h3M4 13h1" />
<path stroke="#ecedef" d="M1 13h1" />
<path stroke="#e7f0ef" d="M3 13h1M7 13h1" />
<path stroke="#151c22" d="M3 14h3" />
<path stroke="#c6a770" d="M6 14h1" />
<path stroke="#634348" d="M3 15h1M7 15h1" />
</svg>