<svg xmlns="http://www.w3.org/2000/svg" viewBox="0 -0.5 19 15" shape-rendering="crispEdges">
<metadata>Made with Pixels to Svg https://codepen.io/shshaw/pen/XbxvNj</metadata>
<path stroke="#000100" d="M1 0h1M15 1h1M2 2h1M14 2h1M4 3h1M16 3h1M4 6h1M15 7h1M10 9h1M12 10h1M4 12h1M11 14h1" />
<path stroke="#000000" d="M2 0h3M0 1h1M5 1h1M9 1h1M12 1h1M16 1h2M1 2h1M6 2h1M13 2h1M18 2h1M3 3h1M14 3h1M15 4h1M4 5h1M8 6h1M14 8h1M5 9h1M7 9h1M11 9h3M6 11h1M12 11h1M14 11h1M6 12h1M13 12h2M6 13h1M8 13h1M10 13h1M12 13h1M7 14h1" />
<path stroke="#438e4d" d="M1 1h2M3 2h3M8 2h3M12 2h1M7 3h1M6 5h1M6 6h1M6 7h1M8 8h2" />
<path stroke="#53bf62" d="M3 1h1M17 2h1M9 4h1M12 4h1M11 5h1M10 6h1M9 7h1M12 7h1M11 8h1" />
<path stroke="#53be63" d="M4 1h1M13 4h1M11 6h1M12 8h1" />
<path stroke="#010000" d="M8 1h1M11 1h1M7 2h1M5 4h1M15 6h1M5 7h1M9 9h1M4 11h1M12 12h1M10 14h1" />
<path stroke="#000001" d="M10 1h1M17 3h1M15 5h1M6 8h1M8 9h1M4 10h1M5 12h1M6 14h1" />
<path stroke="#438f4d" d="M11 2h1M6 4h1" />
<path stroke="#53be62" d="M15 2h1M8 3h1M10 3h4M7 4h1M10 4h2M14 4h1M5 5h1M9 5h1M14 5h1M9 6h1M14 6h1M8 7h1M10 7h2" />
<path stroke="#52be62" d="M16 2h1M9 3h1M8 4h1M10 5h1M14 7h1M13 8h1M13 11h1" />
<path stroke="#438e4c" d="M5 3h1M5 6h1" />
<path stroke="#428e4d" d="M6 3h1M15 3h1M7 8h1M10 8h1" />
<path stroke="#ffffff" d="M7 5h1M12 5h1" />
<path stroke="#1a1718" d="M8 5h1" />
<path stroke="#1a1618" d="M13 5h1M7 6h1M12 6h2" />
<path stroke="#efbdb3" d="M7 7h1" />
<path stroke="#efbdb2" d="M13 7h1" />
<path stroke="#4b3219" d="M6 9h1M5 10h1M7 10h1M9 10h1M11 10h1M9 11h1M9 12h1" />
<path stroke="#7d5234" d="M6 10h1M8 11h1" />
<path stroke="#4a3219" d="M8 10h1" />
<path stroke="#4b3218" d="M10 10h1" />
<path stroke="#4b3319" d="M5 11h1" />
<path stroke="#7d5334" d="M7 11h1M10 11h2M7 12h1" />
<path stroke="#93613c" d="M8 12h1M11 12h1" />
<path stroke="#93613d" d="M10 12h1" />
<path stroke="#7d5335" d="M7 13h1" />
<path stroke="#92613d" d="M11 13h1" />
</svg>