<svg xmlns="http://www.w3.org/2000/svg" viewBox="0 -0.5 17 19" shape-rendering="crispEdges">
<metadata>Made with Pixels to Svg https://codepen.io/shshaw/pen/XbxvNj</metadata>
<path stroke="#000000" d="M1 0h2M0 1h1M3 1h1M8 1h5M0 2h1M3 2h1M5 2h3M13 2h1M1 3h2M4 3h1M14 3h1M4 4h2M15 4h1M5 5h1M16 5h1M6 6h1M16 6h1M7 7h1M16 7h1M7 8h1M16 8h1M6 9h1M16 9h1M6 10h1M16 10h1M7 11h1M16 11h1M8 12h1M16 12h1M7 13h1M16 13h1M6 14h1M15 14h1M6 15h1M8 15h1M14 15h1M16 15h1M6 16h3M14 16h3M8 17h1M10 17h1M12 17h1M14 17h1M8 18h2M12 18h2" />
<path stroke="#c0ccdc" d="M1 1h1M8 10h1M8 11h2M9 12h4M9 13h3M11 14h2" />
<path stroke="#e9e6e1" d="M2 1h1M1 2h2M10 5h6M10 6h6M13 12h2M12 13h4M13 14h2" />
<path stroke="#a12736" d="M8 2h3M5 3h4M6 4h2M6 5h2M8 13h1M7 14h3M7 15h1M9 15h1" />
<path stroke="#e33c43" d="M11 2h2M9 3h5M8 4h7M10 14h1M10 15h4M9 17h1M13 17h1" />
<path stroke="#8b9bb4" d="M8 5h2M7 6h3" />
<path stroke="#d77643" d="M8 7h8M8 8h3M8 9h2M7 10h1M9 10h1" />
<path stroke="#e4a572" d="M11 8h5M7 9h1M11 9h4M11 10h4M10 11h6M15 12h1M15 15h1" />
<path stroke="#1a1618" d="M10 9h1M15 9h1M10 10h1M15 10h1" />
<path stroke="#733e3a" d="M9 16h2M13 16h1" />
<path stroke="#e4a673" d="M11 16h2" />
</svg>