<svg xmlns="http://www.w3.org/2000/svg" viewBox="0 -0.5 22 21" shape-rendering="crispEdges">
<metadata>Made with Pixels to Svg https://codepen.io/shshaw/pen/XbxvNj</metadata>
<path stroke="#000000" d="M2 0h4M1 1h1M6 1h1M11 1h4M0 2h1M7 2h1M9 2h2M15 2h4M0 3h1M3 3h3M8 3h1M19 3h1M1 4h2M6 4h1M20 4h1M4 5h3M21 5h1M3 6h1M19 6h2M3 7h1M18 7h1M4 8h2M17 8h1M6 9h1M17 9h1M17 10h1M7 11h1M17 11h1M7 12h1M17 12h1M8 13h1M17 13h1M8 14h1M17 14h1M8 15h1M16 15h1M7 16h1M16 16h1M7 17h1M9 17h1M15 17h1M17 17h1M7 18h3M15 18h3M9 19h1M11 19h3M15 19h1M9 20h2M13 20h2" />
<path stroke="#b11e00" d="M2 1h2M1 2h5M1 3h2M6 3h1M7 4h1M7 5h1M9 16h3M10 17h5" />
<path stroke="#e04c1d" d="M4 1h2M6 2h1M7 3h1M8 4h1M8 5h2" />
<path stroke="#7b3500" d="M11 2h4M9 3h3M14 3h2M9 4h2M18 5h3M5 6h3M12 6h7M11 7h7M6 8h5M7 9h2M10 18h2M13 18h2M10 19h1M14 19h1" />
<path stroke="#f4c811" d="M12 3h2M16 3h3M11 4h1M14 4h2M19 4h1M10 5h1M4 6h1M8 6h2M4 7h4M12 18h1" />
<path stroke="#b4652b" d="M12 4h2M16 4h3M11 5h7M10 6h2M8 7h3" />
<path stroke="#d18853" d="M11 8h6M9 9h2M10 10h2M10 11h1M8 12h1M10 12h1M11 13h1M14 15h2" />
<path stroke="#f3c184" d="M11 9h4M12 10h1M15 10h2M8 11h1M13 11h3M13 12h3M12 13h5M16 17h1" />
<path stroke="#1a1618" d="M15 9h2M13 10h2M11 11h2M16 11h1M11 12h2M16 12h1" />
<path stroke="#3f290f" d="M7 10h3M9 11h1M9 12h1M9 13h2M9 14h8M11 15h3M12 16h4" />
<path stroke="#7f1300" d="M9 15h2M8 16h1M8 17h1" />
</svg>