<svg xmlns="http://www.w3.org/2000/svg" viewBox="0 -0.5 14 19" shape-rendering="crispEdges">
<metadata>Made with Pixels to Svg https://codepen.io/shshaw/pen/XbxvNj</metadata>
<path stroke="#000000" d="M7 0h3M5 1h2M10 1h1M4 2h1M11 2h1M3 3h1M12 3h1M1 4h2M12 4h1M0 5h1M5 5h6M13 5h1M0 6h1M2 6h3M11 6h2M1 7h2M11 7h1M2 8h1M11 8h1M1 9h1M11 9h1M1 10h1M11 10h1M2 11h1M11 11h1M3 12h1M10 12h1M2 13h1M4 13h6M1 14h1M9 14h2M1 15h1M3 15h1M9 15h1M11 15h1M1 16h3M9 16h3M3 17h1M5 17h1M7 17h1M9 17h1M3 18h2M7 18h2" />
<path stroke="#db0100" d="M7 1h3M5 2h6M4 3h1M10 3h2M3 4h1M11 4h1M1 5h1M11 5h2M1 6h1M3 13h1M2 14h3M6 14h1M2 15h1" />
<path stroke="#fe1812" d="M5 3h3M4 4h1M4 5h1" />
<path stroke="#cdc8c4" d="M8 3h2M7 4h1M10 4h1" />
<path stroke="#ff1812" d="M5 4h2M7 14h1" />
<path stroke="#feffff" d="M8 4h2" />
<path stroke="#ff1712" d="M2 5h2" />
<path stroke="#f7c680" d="M5 6h6M4 8h2M4 9h1M2 10h3M3 11h3M4 12h3" />
<path stroke="#723300" d="M3 7h2M3 8h1M3 9h1M7 11h3" />
<path stroke="#fcd49a" d="M5 7h6M6 8h5M2 9h1M6 9h4M6 10h4M6 11h1M10 11h1M7 12h3" />
<path stroke="#1a1618" d="M5 9h1M10 9h1M5 10h1M10 10h1" />
<path stroke="#2f71fd" d="M5 14h1M8 14h1M4 15h1M6 15h2M4 16h5" />
<path stroke="#ffdc08" d="M5 15h1M8 15h1" />
<path stroke="#ffffff" d="M10 15h1" />
<path stroke="#9b5638" d="M4 17h1M8 17h1" />
</svg>