<svg xmlns="http://www.w3.org/2000/svg" viewBox="0 -0.5 14 19" shape-rendering="crispEdges">
<metadata>Made with Pixels to Svg https://codepen.io/shshaw/pen/XbxvNj</metadata>
<path stroke="#000000" d="M6 0h5M4 1h2M11 1h1M1 2h3M12 2h1M0 3h1M13 3h1M0 4h1M13 4h1M1 5h1M3 5h1M11 5h2M2 6h1M11 6h1M2 7h1M11 7h1M2 8h1M4 8h3M9 8h3M1 9h1M3 9h2M7 9h3M12 9h1M1 10h1M4 10h1M6 10h1M9 10h1M12 10h1M2 11h1M11 11h1M3 12h1M10 12h1M2 13h1M4 13h6M1 14h1M9 14h2M1 15h1M3 15h1M9 15h1M11 15h1M1 16h3M9 16h3M3 17h1M5 17h1M7 17h1M9 17h1M3 18h2M7 18h2" />
<path stroke="#2d2d58" d="M6 1h2M4 2h3M1 3h4M1 4h2" />
<path stroke="#333465" d="M8 1h3M7 2h1M10 2h2M5 3h3M10 3h3M3 4h2M12 4h1M2 5h1" />
<path stroke="#e9b822" d="M8 2h2M8 3h2" />
<path stroke="#202020" d="M5 4h7" />
<path stroke="#432814" d="M4 5h7" />
<path stroke="#4b2d17" d="M3 6h1M3 7h1" />
<path stroke="#dfb574" d="M4 6h7M4 7h1M3 8h1M2 10h2M3 11h3M4 12h3" />
<path stroke="#ebc683" d="M5 7h6M7 8h2M2 9h1M7 10h2M6 11h5M7 12h3M10 15h1" />
<path stroke="#2c2c2c" d="M5 9h1M10 9h1M5 10h1M10 10h2" />
<path stroke="#616161" d="M6 9h1M11 9h1" />
<path stroke="#515fa4" d="M3 13h1M2 14h5M2 15h1M4 15h1" />
<path stroke="#6270c2" d="M7 14h2M5 15h4" />
<path stroke="#1c233e" d="M4 16h2M7 16h2" />
<path stroke="#edbe3a" d="M6 16h1" />
<path stroke="#2f3565" d="M4 17h1M8 17h1" />
</svg>