<svg xmlns="http://www.w3.org/2000/svg" viewBox="0 -0.5 11 18" shape-rendering="crispEdges">
<metadata>Made with Pixels to Svg https://codepen.io/shshaw/pen/XbxvNj</metadata>
<path stroke="#000000" d="M5 0h4M3 1h2M9 1h1M2 2h1M9 2h1M2 3h1M9 3h1M1 4h1M10 4h1M1 5h1M10 5h1M1 6h1M10 6h1M1 7h1M10 7h1M0 8h1M10 8h1M0 9h1M10 9h1M1 10h1M10 10h1M2 11h1M9 11h1M1 12h1M3 12h6M0 13h1M8 13h2M0 14h1M2 14h1M8 14h1M10 14h1M0 15h3M8 15h3M2 16h1M4 16h1M6 16h1M8 16h1M2 17h2M6 17h2" />
<path stroke="#5aa65c" d="M5 1h4M7 2h2" />
<path stroke="#3c8840" d="M3 2h3" />
<path stroke="#3b893e" d="M6 2h1" />
<path stroke="#e3a167" d="M3 3h3M2 4h2M2 5h2M2 6h2M2 7h3M2 8h2M1 9h3M2 10h3M3 11h3" />
<path stroke="#eec39a" d="M6 3h3M4 4h6M4 5h6M4 6h6M5 7h5M1 8h1M5 8h4M5 9h4M5 10h5M6 11h3M9 14h1" />
<path stroke="#1a1618" d="M4 8h1M9 8h1M4 9h1M9 9h1" />
<path stroke="#ce681f" d="M2 12h1M1 13h4M7 13h1M1 14h1M3 14h1M3 15h1M3 16h1" />
<path stroke="#ffffff" d="M5 13h2" />
<path stroke="#ff8126" d="M4 14h4M4 15h4M7 16h1" />
</svg>