<svg xmlns="http://www.w3.org/2000/svg" viewBox="0 -0.5 11 16" shape-rendering="crispEdges">
<metadata>Made with Pixels to Svg https://codepen.io/shshaw/pen/XbxvNj</metadata>
<path stroke="#000000" d="M3 0h6M2 1h1M9 1h1M1 2h1M10 2h1M1 3h1M10 3h1M1 4h1M10 4h1M1 5h1M10 5h1M0 6h1M10 6h1M0 7h1M10 7h1M1 8h1M10 8h1M2 9h1M9 9h1M1 10h1M3 10h6M0 11h1M8 11h2M0 12h1M2 12h1M8 12h1M10 12h1M0 13h3M8 13h3M2 14h1M4 14h1M6 14h1M8 14h1M2 15h2M6 15h2" />
<path stroke="#e3a167" d="M3 1h2M2 2h2M2 3h2M2 4h2M2 5h3M2 6h2M1 7h3M2 8h3M3 9h3" />
<path stroke="#eec39a" d="M5 1h4M4 2h6M4 3h6M4 4h6M5 5h5M1 6h1M5 6h4M5 7h4M5 8h5M6 9h3M9 12h1" />
<path stroke="#1a1618" d="M4 6h1M9 6h1M4 7h1M9 7h1" />
<path stroke="#ce681f" d="M2 10h1M1 11h4M7 11h1M1 12h1M3 12h1M3 13h1M3 14h1" />
<path stroke="#ffffff" d="M5 11h2" />
<path stroke="#ff8126" d="M4 12h4M4 13h4M7 14h1" />
</svg>