<svg xmlns="http://www.w3.org/2000/svg" viewBox="0 -0.5 12 18" shape-rendering="crispEdges">
<metadata>Made with Pixels to Svg https://codepen.io/shshaw/pen/XbxvNj</metadata>
<path stroke="#000000" d="M4 0h4M2 1h2M8 1h2M1 2h1M10 2h1M1 3h1M10 3h1M0 4h1M11 4h1M0 5h2M10 5h2M1 6h1M10 6h1M1 7h1M10 7h1M0 8h1M10 8h1M0 9h1M10 9h1M1 10h1M10 10h1M2 11h1M9 11h1M1 12h1M3 12h6M0 13h1M8 13h2M0 14h1M2 14h1M8 14h1M10 14h1M0 15h3M8 15h3M2 16h1M8 16h1M2 17h2M6 17h2" />
<path stroke="#212121" d="M4 1h4M2 2h8M2 3h8M2 4h1M4 4h1M6 4h1M8 4h1M10 4h1M2 12h1M1 13h2M3 14h5M3 16h5" />
<path stroke="#575755" d="M1 4h1M3 4h1M5 4h1M7 4h1M9 4h1" />
<path stroke="#e0bc91" d="M2 5h8M2 6h2M2 7h2M2 8h2M1 9h3M2 10h3M3 11h3" />
<path stroke="#fcd4a4" d="M4 6h6M4 7h6M1 8h1M5 8h4M5 9h4M5 10h5M6 11h3M9 14h1" />
<path stroke="#1a1618" d="M4 8h1M9 8h1M4 9h1M9 9h1" />
<path stroke="#f1efef" d="M3 13h3M3 15h1" />
<path stroke="#ffffff" d="M6 13h2M1 14h1M4 15h4" />
</svg>