<svg xmlns="http://www.w3.org/2000/svg" viewBox="0 -0.5 13 16" shape-rendering="crispEdges">
<metadata>Made with Pixels to Svg https://codepen.io/shshaw/pen/XbxvNj</metadata>
<path stroke="#000000" d="M4 0h6M3 1h1M10 1h1M2 2h1M11 2h1M2 3h1M6 3h6M2 4h1M5 4h1M12 4h1M1 5h2M5 5h1M12 5h1M0 6h1M2 6h1M6 6h1M12 6h1M0 7h1M2 7h1M7 7h5M0 8h1M2 8h1M11 8h1M0 9h1M2 9h1M11 9h1M0 10h1M2 10h1M11 10h1M0 11h1M2 11h1M11 11h1M1 12h2M11 12h1M2 13h1M10 13h2M2 14h1M5 14h3M10 14h1M3 15h2M7 15h3" />
<path stroke="#8b0504" d="M4 1h4M3 2h3M3 3h2M3 4h2M3 5h2M1 6h1M3 6h3M1 7h1M3 7h4M1 8h1M3 8h2M7 8h4M1 9h1M3 9h2M1 10h1M3 10h2M1 11h1M3 11h2M3 12h2M3 13h2M3 14h2" />
<path stroke="#c90707" d="M8 1h2M6 2h5M5 3h1M5 8h2M5 9h6M5 10h6M5 11h6M5 12h6M5 13h5M8 14h2" />
<path stroke="#1b7c8c" d="M6 4h2M6 5h3M7 6h5" />
<path stroke="#35cae8" d="M8 4h2M9 5h3" />
<path stroke="#ffffff" d="M10 4h2" />
</svg>