<svg xmlns="http://www.w3.org/2000/svg" viewBox="0 -0.5 11 19" shape-rendering="crispEdges">
<metadata>Made with Pixels to Svg https://codepen.io/shshaw/pen/XbxvNj</metadata>
<path stroke="#000000" d="M5 0h2M5 1h1M6 2h1M3 3h6M2 4h1M9 4h1M1 5h1M10 5h1M1 6h1M10 6h1M1 7h1M10 7h1M1 8h1M10 8h1M0 9h1M10 9h1M0 10h1M10 10h1M1 11h1M10 11h1M2 12h1M9 12h1M1 13h1M3 13h6M0 14h1M8 14h2M0 15h1M2 15h1M8 15h1M10 15h1M0 16h3M8 16h3M2 17h1M4 17h1M6 17h1M8 17h1M2 18h2M6 18h2" />
<path stroke="#d19d76" d="M3 4h2M2 5h2M2 6h2M2 7h2M2 8h3M2 9h2M1 10h3M2 11h3M3 12h3M2 13h1M1 14h7M1 15h1M3 15h1" />
<path stroke="#f1d2b5" d="M5 4h4M4 5h6M4 6h6M4 7h6M5 8h5M1 9h1M5 9h4M5 10h4M5 11h2M8 11h2M6 12h3M4 15h4M9 15h1M3 17h1M7 17h1" />
<path stroke="#1a1618" d="M4 9h1M9 9h1M4 10h1M9 10h1" />
<path stroke="#861e20" d="M7 11h1" />
<path stroke="#fbfbfb" d="M3 16h5M5 17h1" />
<path stroke="#33354b" d="M4 18h1" />
</svg>