<svg xmlns="http://www.w3.org/2000/svg" viewBox="0 -0.5 12 16" shape-rendering="crispEdges">
<metadata>Made with Pixels to Svg https://codepen.io/shshaw/pen/XbxvNj</metadata>
<path stroke="#000000" d="M4 0h2M7 0h2M3 1h1M6 1h2M9 1h1M2 2h1M10 2h1M1 3h1M10 3h1M1 4h1M10 4h1M0 5h1M11 5h1M0 6h1M11 6h1M0 7h1M11 7h1M1 8h1M10 8h1M2 9h1M9 9h1M1 10h1M3 10h6M0 11h1M8 11h2M0 12h1M2 12h1M8 12h1M10 12h1M0 13h3M8 13h3M2 14h1M4 14h1M6 14h1M8 14h1M2 15h2M6 15h2" />
<path stroke="#139043" d="M4 1h2M8 1h1M3 2h2M7 2h1M2 3h2M2 4h1M1 5h2M4 5h2M8 5h2M1 6h3M7 6h1M1 7h2M2 8h2M3 9h3" />
<path stroke="#43bf38" d="M5 2h2M8 2h2M4 3h6M3 4h7M3 5h1M6 5h2M10 5h1M6 6h1M10 6h1M3 7h8M4 8h1M6 9h3M1 12h1M9 12h1M3 14h1M7 14h1" />
<path stroke="#ffffff" d="M4 6h1M8 6h1" />
<path stroke="#1a1618" d="M5 6h1M9 6h1" />
<path stroke="#e43b44" d="M5 8h5" />
<path stroke="#0043c0" d="M2 10h1M1 11h7M3 12h5" />
<path stroke="#e16923" d="M3 13h1" />
<path stroke="#e16622" d="M4 13h4" />
</svg>