<svg xmlns="http://www.w3.org/2000/svg" viewBox="0 -0.5 20 18" shape-rendering="crispEdges">
<metadata>Made with Pixels to Svg https://codepen.io/shshaw/pen/XbxvNj</metadata>
<path stroke="#000100" d="M4 0h1M7 0h1M1 6h1M4 6h1M10 6h1M2 7h1M12 11h1M7 12h1M10 12h1M14 13h1M3 14h1M9 14h1M3 17h1" />
<path stroke="#000000" d="M5 0h2M9 0h1M3 1h1M2 3h1M0 5h1M3 6h1M6 6h2M9 6h1M11 6h2M11 7h1M1 8h1M1 9h1M5 9h1M11 9h1M2 10h1M11 10h1M14 10h5M3 11h1M10 11h1M19 11h1M2 12h1M4 12h1M6 12h1M9 12h1M13 12h1M12 13h1M16 13h2M1 14h1M10 14h4M1 15h1M3 15h1M3 16h1M5 16h1M9 16h1M4 17h1M7 17h1" />
<path stroke="#000001" d="M8 0h1M11 3h1M12 4h1M13 5h1M2 6h1M5 6h1M8 6h1M5 12h1M8 12h1M11 12h1M9 13h1M15 13h1M2 15h1" />
<path stroke="#536e54" d="M4 1h2M3 2h2M3 3h1M1 5h2M3 12h1M2 13h4M7 13h2M4 14h1M4 16h1" />
<path stroke="#536e55" d="M6 1h1M6 13h1" />
<path stroke="#526e54" d="M7 1h1" />
<path stroke="#6a8c6b" d="M8 1h2M5 2h4M10 2h1M5 3h5M4 5h2M7 5h2M5 14h1M7 14h2M8 16h1" />
<path stroke="#010000" d="M10 1h1M2 2h1M11 2h1M1 4h1M11 8h1M13 10h1M12 12h1M18 12h1M1 13h1M9 15h1M7 16h1M8 17h1" />
<path stroke="#9fd4a3" d="M9 2h1M10 3h1" />
<path stroke="#6a8d6b" d="M4 3h1M6 5h1M9 5h1M12 5h1M6 14h1" />
<path stroke="#3f5541" d="M2 4h1M5 4h1M11 4h1" />
<path stroke="#3f5440" d="M3 4h1M8 15h1" />
<path stroke="#3e5441" d="M4 4h1M7 4h1M10 4h1" />
<path stroke="#3f5441" d="M6 4h1M8 4h2M4 15h2M7 15h1" />
<path stroke="#536f54" d="M3 5h1" />
<path stroke="#6a8c6a" d="M10 5h1" />
<path stroke="#6b8c6b" d="M11 5h1" />
<path stroke="#d9b3b2" d="M3 7h1M6 7h1M3 8h1M2 9h2M4 10h1M4 11h1M2 14h1" />
<path stroke="#d8b3b2" d="M4 7h1M7 7h1M10 7h1M5 11h1" />
<path stroke="#d9b2b2" d="M5 7h1M8 7h1" />
<path stroke="#d9b3b3" d="M9 7h1M3 10h1" />
<path stroke="#f7cccb" d="M2 8h1M4 8h1M6 8h1M8 8h1M9 9h1M5 10h1M8 10h3M6 11h1M9 11h1M11 13h1" />
<path stroke="#1a1618" d="M5 8h1M10 9h1" />
<path stroke="#f7ccca" d="M7 8h1M8 9h1M6 10h1M7 11h1" />
<path stroke="#f7cdcb" d="M9 8h1M4 9h1M7 9h1" />
<path stroke="#1a1619" d="M10 8h1" />
<path stroke="#f6cccb" d="M6 9h1M7 10h1M8 11h1M10 13h1" />
<path stroke="#474747" d="M13 11h1M16 11h2M14 12h2M17 12h1M13 13h1" />
<path stroke="#777676" d="M14 11h1" />
<path stroke="#767676" d="M15 11h1M18 11h1" />
<path stroke="#474647" d="M16 12h1" />
<path stroke="#283629" d="M6 15h1" />
</svg>