<svg xmlns="http://www.w3.org/2000/svg" viewBox="0 -0.5 15 17" shape-rendering="crispEdges">
<metadata>Made with Pixels to Svg https://codepen.io/shshaw/pen/XbxvNj</metadata>
<path stroke="#000000" d="M4 0h7M12 0h2M2 1h2M11 1h1M14 1h1M1 2h1M14 2h1M0 3h1M14 3h1M0 4h1M13 4h1M0 5h1M12 5h1M0 6h1M12 6h1M1 7h1M12 7h1M1 8h1M12 8h1M2 9h1M12 9h1M3 10h1M11 10h1M1 11h10M1 12h1M10 12h2M1 13h1M3 13h1M10 13h1M12 13h1M1 14h1M3 14h1M10 14h3M2 15h2M5 15h3M9 15h1M3 16h2M7 16h2" />
<path stroke="#f4b74c" d="M4 1h6M2 2h2M13 2h1M1 3h1M6 3h3M13 3h1M3 4h4M9 4h2M10 5h1" />
<path stroke="#c28d41" d="M10 1h1M12 1h2M11 2h1M1 4h1M11 4h2M1 5h1M1 6h3" />
<path stroke="#ffde14" d="M4 2h6M12 2h1M2 3h4M9 3h3M7 4h2M2 5h2" />
<path stroke="#fbd371" d="M10 2h1M12 3h1M2 4h1" />
<path stroke="#e3ae7a" d="M4 5h6M11 5h1M4 6h1M3 7h2M2 8h3M3 9h3M4 10h3" />
<path stroke="#efc08c" d="M5 6h7M2 7h1M6 7h4M11 7h1M6 8h4M11 8h1M6 9h6M7 10h4M11 13h1" />
<path stroke="#4f5e87" d="M5 7h1M10 7h1M5 8h1M10 8h1" />
<path stroke="#434343" d="M2 12h3M2 13h1M4 13h2M9 13h1M2 14h1M4 14h2M9 14h1" />
<path stroke="#353535" d="M5 12h1M9 12h1M6 13h1M8 13h1M4 15h1M8 15h1" />
<path stroke="#eef3f6" d="M6 12h1M8 12h1" />
<path stroke="#e84c3d" d="M7 12h1" />
<path stroke="#c23a2c" d="M7 13h1" />
<path stroke="#585858" d="M6 14h3" />
</svg>