<svg xmlns="http://www.w3.org/2000/svg" viewBox="0 -0.5 17 17" shape-rendering="crispEdges">
<metadata>Made with Pixels to Svg https://codepen.io/shshaw/pen/XbxvNj</metadata>
<path stroke="rgba(64,64,64,0.03137254901960784)" d="M6 0h1" />
<path stroke="#000000" d="M6 1h6M5 2h1M12 2h1M4 3h1M13 3h1M1 4h1M3 4h2M14 4h1M0 5h1M2 5h1M14 5h1M1 6h1M3 6h1M14 6h1M1 7h3M8 7h1M13 7h2M0 8h1M2 8h1M4 8h1M14 8h2M1 9h1M3 9h3M13 9h2M16 9h1M2 10h1M5 10h1M12 10h2M15 10h1M4 11h1M6 11h7M14 11h1M3 12h1M13 12h1M3 13h1M5 13h1M11 13h1M13 13h1M3 14h3M11 14h3M5 15h1M7 15h3M11 15h1M5 16h2M9 16h2" />
<path stroke="#4d5d11" d="M6 2h2M5 3h2M5 4h2M5 5h2M4 7h1M5 8h2M6 9h2M6 10h2M5 11h1M4 12h3M10 12h3M4 13h1M6 13h1M10 13h1M12 13h1M6 15h1M10 15h1" />
<path stroke="#657b17" d="M8 2h4M7 3h6M7 4h7M7 5h7M7 8h7M8 9h2M12 9h1M9 10h3" />
<path stroke="#2a8798" d="M1 5h1M3 5h2M4 6h3M5 7h2" />
<path stroke="#329db1" d="M2 6h1M7 6h7M9 7h3" />
<path stroke="#d4e3e0" d="M7 7h1M12 7h1M10 9h2" />
<path stroke="#6a6a5d" d="M1 8h1M2 9h1M15 9h1M14 10h1" />
<path stroke="#b98927" d="M3 10h1M13 11h1M7 13h3" />
<path stroke="#996128" d="M4 10h1M3 11h1" />
<path stroke="rgba(77,93,17,0.9921568627450981)" d="M8 10h1" />
<path stroke="#bd9631" d="M7 12h3" />
<path stroke="#5c3636" d="M6 14h5" />
</svg>