<svg xmlns="http://www.w3.org/2000/svg" viewBox="0 -0.5 20 16" shape-rendering="crispEdges">
<metadata>Made with Pixels to Svg https://codepen.io/shshaw/pen/XbxvNj</metadata>
<path stroke="#000000" d="M6 0h6M5 1h1M12 1h1M4 2h1M13 2h1M1 3h1M3 3h2M14 3h1M0 4h1M2 4h1M14 4h1M1 5h1M3 5h1M14 5h1M1 6h3M8 6h1M13 6h2M18 6h2M0 7h1M2 7h1M4 7h1M14 7h1M17 7h1M19 7h1M1 8h1M3 8h1M5 8h1M13 8h1M16 8h1M18 8h1M2 9h1M5 9h1M12 9h1M15 9h1M17 9h1M4 10h1M6 10h6M13 10h2M16 10h1M3 11h1M12 11h1M15 11h1M3 12h1M5 12h1M11 12h1M13 12h1M15 12h1M3 13h3M11 13h4M5 14h1M7 14h3M11 14h1M5 15h2M9 15h2" />
<path stroke="#4d5d11" d="M6 1h2M5 2h2M5 3h2M5 4h2M4 6h1M5 7h2M6 8h2M6 9h2M5 10h1M4 11h3M10 11h2M4 12h1M6 12h1M10 12h1M12 12h1M6 14h1M10 14h1" />
<path stroke="#657b17" d="M8 1h4M7 2h6M7 3h7M7 4h7M7 7h7M8 8h2M12 8h1M9 9h3" />
<path stroke="#2a8798" d="M1 4h1M3 4h2M4 5h3M5 6h2" />
<path stroke="#329db1" d="M2 5h1M7 5h7M9 6h3" />
<path stroke="#d4e3e0" d="M7 6h1M12 6h1M18 7h1M10 8h2M17 8h1M16 9h1M15 10h1" />
<path stroke="#6a6a5d" d="M1 7h1M2 8h1" />
<path stroke="#b98927" d="M3 9h1M14 11h1M7 12h3" />
<path stroke="#996128" d="M4 9h1M3 10h1M13 11h1M14 12h1" />
<path stroke="rgba(77,93,17,0.9921568627450981)" d="M8 9h1" />
<path stroke="#bd9631" d="M7 11h3" />
<path stroke="#5c3636" d="M6 13h5" />
</svg>