<?xml version="1.0" encoding="UTF-8"?>
<svg width="139px" height="26px" viewBox="0 0 139 26" version="1.1" xmlns="http://www.w3.org/2000/svg" xmlns:xlink="http://www.w3.org/1999/xlink">
    <title>Group 20</title>
    <defs>
        <polygon id="path-1" points="0 0 14 0 14 20 0 20"></polygon>
    </defs>
    <g id="hackaton" stroke="none" stroke-width="1" fill="none" fill-rule="evenodd">
        <g id="Extra-Large-Copy-7" transform="translate(-402, -80)">
            <g id="Group-20" transform="translate(402, 80)">
                <g id="Group-3" transform="translate(0, 3)">
                    <mask id="mask-2" fill="white">
                        <use xlink:href="#path-1"></use>
                    </mask>
                    <g id="Clip-2"></g>
                    <path d="M8.23516045,14.6478774 L8.23516045,6.96603218 C8.23516045,6.39990185 7.94828539,6.02762295 7.37489032,5.84954604 L5.7399155,5.33985347 C5.69091951,5.3237284 5.63340248,5.31566586 5.5680745,5.31566586 C5.2481804,5.31566586 5.08876592,5.48182424 5.08876592,5.81308935 L5.08876592,5.83727697 L5.28510492,15.448873 C5.29327091,15.7889017 5.44061392,15.9585656 5.72784402,15.9585656 C5.77684001,15.9585656 5.83009652,15.9547096 5.88761355,15.946647 L7.43631282,15.6672626 C7.96887791,15.5705121 8.23516045,15.2304834 8.23516045,14.6478774 L8.23516045,14.6478774 Z M14,14.1262663 C14,15.3805167 13.5490949,16.4482771 12.6479948,17.329898 L11.283563,18.6647737 C10.3739418,19.5551583 9.29247967,20 8.03846642,20 L1.11867072,20 C0.372724552,20 -7.10086783e-05,19.6319276 -7.10086783e-05,18.8954324 L-7.10086783e-05,1.54134679 C-7.10086783e-05,0.910365619 0.327634042,0.570687419 0.983399185,0.52196165 L8.11231544,0.0122690784 C8.22699446,0.00455708627 8.34593399,0 8.46877901,0 C9.60775821,0 10.5788019,0.404879588 11.38191,1.21393767 L12.6231417,2.46363095 C13.5409289,3.3859151 14,4.44981947 14,5.65534406 L14,14.1262663 Z" id="Fill-1" fill="#F6007B" mask="url(#mask-2)"></path>
                </g>
                <path d="M25.6339599,17.3570485 L25.6339599,11.1783433 C25.6339599,10.5676253 25.3264454,10.2340687 24.7107052,10.1783614 L22.1880194,9.96412864 C22.1386037,9.95656344 22.0895436,9.95243697 22.040128,9.95243697 C21.4738035,9.95243697 21.1744656,10.257796 21.1417589,10.8688578 L20.7972715,17.226033 L20.7972715,17.3570485 C20.7972715,18.0712721 21.1456695,18.4285559 21.8431765,18.4285559 C21.9007688,18.4285559 21.9580056,18.4244294 22.0155979,18.4165204 L24.7970937,18.2022877 C25.354886,18.1627423 25.6339599,17.8807667 25.6339599,17.3570485 L25.6339599,17.3570485 Z M31,17.1307802 C31,18.3133586 30.6679554,19.452265 30.0031551,20.5474997 L29.4738035,21.4168099 C28.8338888,22.4721554 27.8697507,23 26.5817447,23 L19.751011,23 C18.5693019,23 17.506688,22.5436809 16.5631694,21.6310427 L16.4401635,21.5117188 C15.5951207,20.6943333 15.1642448,19.6149168 15.1478914,18.2738132 L15,8.20246864 L15,8.14263479 C15,6.9999457 15.4881127,6.02369102 16.4646936,5.21387074 L16.5510821,5.14268908 C17.4697151,4.38101099 18.6020086,4 19.9479625,4 L25.7199929,4 C27.0083544,4 28.0954984,4.43671837 28.9817802,5.30946736 L29.6462249,5.96420104 C30.5488602,6.85311205 31,7.90467486 31,9.11888947 L31,17.1307802 Z" id="Fill-4" fill="#F6007B"></path>
                <path d="M36.8874446,15.642056 C37.8955523,15.6343908 38.3999672,15.1476473 38.3999672,14.182871 L38.3999672,2.49440868 C38.3999672,2.16445447 38.5664205,2 38.9000492,2 L41.3625472,2 C41.6625964,2 41.825078,2.1564408 41.8499918,2.47001925 L42.9877236,17.7409411 C42.9956672,17.8454672 43,17.9499934 43,18.0545195 C43,19.1401978 42.5750205,20.1011415 41.7250615,20.9373507 L40.975119,21.6732148 C40.0749713,22.5582028 38.970819,23 37.662301,23 L33.1250944,23 C32.3747907,23 32,22.6341585 32,21.9024754 L32,16.76397 C32,16.0403006 32.3747907,15.6744591 33.1250944,15.666097 L36.8874446,15.642056 Z" id="Fill-6" fill="#F6007B"></path>
                <path d="M54.6339599,17.3570485 L54.6339599,11.1783433 C54.6339599,10.5676253 54.3264454,10.2340687 53.7107052,10.1783614 L51.1880194,9.96412864 C51.1386037,9.95656344 51.0895436,9.95243697 51.040128,9.95243697 C50.4738035,9.95243697 50.1744656,10.257796 50.1417589,10.8688578 L49.7972715,17.226033 L49.7972715,17.3570485 C49.7972715,18.0712721 50.1456695,18.4285559 50.8431765,18.4285559 C50.9007688,18.4285559 50.9580056,18.4244294 51.0155979,18.4165204 L53.7970937,18.2022877 C54.354886,18.1627423 54.6339599,17.8807667 54.6339599,17.3570485 L54.6339599,17.3570485 Z M60,17.1307802 C60,18.3133586 59.6679554,19.452265 59.0031551,20.5474997 L58.4738035,21.4168099 C57.8338888,22.4721554 56.8697507,23 55.5817447,23 L48.751011,23 C47.5693019,23 46.506688,22.5436809 45.5631694,21.6310427 L45.4401635,21.5117188 C44.5951207,20.6943333 44.1642448,19.6149168 44.1478914,18.2738132 L44,8.20246864 L44,8.14263479 C44,6.9999457 44.4881127,6.02369102 45.4646936,5.21387074 L45.5510821,5.14268908 C46.4697151,4.38101099 47.6020086,4 48.9479625,4 L54.7199929,4 C56.0083544,4 57.0954984,4.43671837 57.9817802,5.30946736 L58.6462249,5.96420104 C59.5488602,6.85311205 60,7.90467486 60,9.11888947 L60,17.1307802 Z" id="Fill-8" fill="#F6007B"></path>
                <path d="M71.7913344,16.4810359 L70.8518034,12.5065627 C70.7857398,12.2365664 70.6004047,12.1019226 70.295441,12.1019226 C70.0893941,12.1019226 69.957267,12.2043228 69.8997738,12.4084145 L68.861326,16.0515929 C68.8284728,16.158245 68.8120462,16.2521414 68.8120462,16.3339906 C68.8120462,16.5791841 68.9602428,16.7262294 69.2569932,16.7754807 L71.259612,17.1067753 C71.284609,17.1149248 71.3092489,17.1188224 71.3338888,17.1188224 C71.6552791,17.1188224 71.8159743,16.9597301 71.8159743,16.6404825 C71.8159743,16.5915855 71.807761,16.5384367 71.7913344,16.4810359 L71.7913344,16.4810359 Z M79.9753601,25.3746149 C79.9917867,25.4231575 80,25.4724088 80,25.5216601 C80,25.8405534 79.8310915,26 79.4932746,26 L75.4751815,26 C74.9313177,26 74.5606475,25.7668536 74.362814,25.3009151 L72.3723366,20.5412559 L67.9710749,19.8666194 L66.9451256,22.3199717 C66.7719319,22.729218 66.4916081,22.9333097 66.1045114,22.9333097 L62.494584,22.9333097 C62.1646233,22.9333097 62,22.7738631 62,22.4546155 C62,22.3897738 62.0082133,22.3242236 62.0246399,22.2586733 L69.0345197,4.042781 C69.2073563,3.58499199 69.5576717,3.33129468 70.0851089,3.28204338 L72.8669206,3.01204708 C72.9408404,3.00425191 73.0111891,3 73.0768956,3 C73.6950363,3 74.0824902,3.29444479 74.2389001,3.88298003 L79.9753601,25.3746149 Z" id="Fill-10" fill="#FFFFFF"></path>
                <path d="M88.7906653,9.81246602 C88.7906653,9.18074677 88.4691745,8.79245515 87.8258447,8.64653887 L85.4381749,8.10005437 C85.390108,8.09233764 85.3458725,8.08812852 85.3058168,8.08812852 C85.1128527,8.08812852 85.0083595,8.20949157 84.9923372,8.45221768 L84.7631487,12.5564636 L84.7631487,12.6052193 C84.7631487,12.8563637 84.8794845,12.9815851 85.1128527,12.9815851 C85.1689307,12.9815851 85.2333682,12.9573826 85.3058168,12.9086269 L87.9345176,11.2084919 C88.5050505,10.836686 88.7906653,10.3708764 88.7906653,9.81246602 L88.7906653,9.81246602 Z M93.9515848,22.477718 C93.9836294,22.5426086 94,22.6074993 94,22.6720391 C94,22.7285115 93.9836294,22.7895438 93.9515848,22.8540837 C93.8871473,22.9512443 93.7784744,23 93.6259143,23 L89.5019157,23 C89.3733891,23 89.276907,22.9512443 89.2124695,22.8540837 L84.6182515,16.0419685 L84.1361895,22.0890756 C84.0957854,22.5668111 83.8383838,22.8056788 83.364333,22.8056788 L80.7356322,22.8056788 C80.2452107,22.8056788 80,22.5587436 80,22.0648731 L80,4.33569512 C80,3.68819166 80.2852665,3.35216331 80.8561477,3.32796086 L88.51341,3 L88.754441,3 C89.9683037,3 90.9892024,3.3805749 91.8171369,4.14137393 C92.6774643,4.92672618 93.107628,5.92253459 93.107628,7.12879917 L93.107628,10.6504323 C93.107628,11.9293043 92.6652734,12.9980708 91.7809126,13.8560304 L90.2978056,15.2888862 L93.9515848,22.477718 Z" id="Fill-12" fill="#FFFFFF"></path>
                <path d="M106,19.7382665 L105.977019,22.1575882 C105.969359,22.7190819 105.696252,23 105.158364,23 L96.372308,23 C95.5266751,23 95.0996954,22.5608085 95.0923681,21.6834532 L95.0001112,5.22165125 C94.9924509,4.43096951 95.3804628,4.03562864 96.1648132,4.03562864 L104.927888,4 C105.626976,4 105.977019,4.35594382 105.977019,5.06748887 L105.977019,5.07913669 L105.954038,8.82699555 C105.946045,9.54642001 105.596667,9.90647482 104.904574,9.90647482 L99.6699099,9.90647482 C99.3624979,9.90647482 99.2086253,10.068174 99.2086253,10.3926002 L99.2086253,11.9462145 C99.2086253,12.2387804 99.3468442,12.4008222 99.6236149,12.4326824 L104.662441,13.0609798 C104.939212,13.09284 105.077431,13.2428914 105.077431,13.5118191 L105.077431,13.5234669 L105.05445,15.2076053 C105.04679,15.769099 104.773682,16.0496745 104.235795,16.0496745 L99.8544237,16.0260363 C99.3085425,16.0260363 99.0357685,16.3066119 99.0357685,16.8681055 L99.0357685,18.3864337 C99.0357685,18.7105173 99.1933047,18.8725591 99.508377,18.8725591 L105.181345,18.8961973 C105.727226,18.8961973 106,19.173347 106,19.7266187 L106,19.7382665 Z" id="Fill-14" fill="#FFFFFF"></path>
                <path d="M112.701714,15.3655008 L112.001781,22.1920962 C111.947189,22.7306987 111.659397,23 111.138407,23 L108.828327,23 C108.275997,23 108,22.7185053 108,22.1555158 L108,22.1436708 L108.186694,4.26910435 C108.194444,3.69845045 108.470441,3.41277511 109.01502,3.41277511 L111.675236,3.41277511 C111.830589,3.41277511 111.958646,3.47757464 112.060081,3.60612854 L116.434912,9.23846165 L118.266801,0.735439798 C118.375313,0.245262727 118.670855,0 119.153428,0 L121.194926,0 C121.731417,0 122,0.245262727 122,0.735439798 C122,0.783865251 121.995956,0.83194232 121.988205,0.880367773 L120.086559,21.9266272 C120.040054,22.4572169 119.75597,22.7226859 119.23498,22.7226859 L117.100135,22.7226859 C116.921192,22.7226859 116.785047,22.6425574 116.6917,22.4816038 L112.701714,15.3655008 Z" id="Fill-16" fill="#FFFFFF"></path>
                <path d="M130.791334,16.4810359 L129.851803,12.5065627 C129.78574,12.2365664 129.600405,12.1019226 129.295441,12.1019226 C129.089394,12.1019226 128.957267,12.2043228 128.899774,12.4084145 L127.861326,16.0515929 C127.828473,16.158245 127.812046,16.2521414 127.812046,16.3339906 C127.812046,16.5791841 127.960243,16.7262294 128.256993,16.7754807 L130.259612,17.1067753 C130.284609,17.1149248 130.309249,17.1188224 130.333889,17.1188224 C130.655279,17.1188224 130.815974,16.9597301 130.815974,16.6404825 C130.815974,16.5915855 130.807761,16.5384367 130.791334,16.4810359 L130.791334,16.4810359 Z M138.97536,25.3746149 C138.991787,25.4231575 139,25.4724088 139,25.5216601 C139,25.8405534 138.831092,26 138.493275,26 L134.475182,26 C133.931318,26 133.560648,25.7668536 133.362814,25.3009151 L131.372337,20.5412559 L126.971075,19.8666194 L125.945126,22.3199717 C125.771932,22.729218 125.491608,22.9333097 125.104511,22.9333097 L121.494584,22.9333097 C121.164623,22.9333097 121,22.7738631 121,22.4546155 C121,22.3897738 121.008213,22.3242236 121.02464,22.2586733 L128.03452,4.042781 C128.207356,3.58499199 128.557672,3.33129468 129.085109,3.28204338 L131.866921,3.01204708 C131.94084,3.00425191 132.011189,3 132.076896,3 C132.695036,3 133.08249,3.29444479 133.2389,3.88298003 L138.97536,25.3746149 Z" id="Fill-18" fill="#FFFFFF"></path>
            </g>
        </g>
    </g>
</svg>